Raleway-Medium-Italic-OTF.ufo
<glyph name="D" format="1">
  <advance width="692"/>
  <unicode hex="0044"/>
  <outline>
    <contour>
      <point x="391" y="708" type="move" name="top"/>
    </contour>
    <contour>
      <point x="20" y="0" type="line"/>
      <point x="255" y="0" type="line"/>
      <point x="492" y="0"/>
      <point x="668" y="186"/>
      <point x="668" y="437" type="curve" smooth="yes"/>
      <point x="668" y="590"/>
      <point x="585" y="710"/>
      <point x="406" y="710" type="curve" smooth="yes"/>
      <point x="171" y="710" type="line"/>
    </contour>
    <contour>
      <point x="127" y="80" type="line"/>
      <point x="244" y="630" type="line"/>
      <point x="389" y="630" type="line" smooth="yes"/>
      <point x="512" y="630"/>
      <point x="575" y="544"/>
      <point x="575" y="423" type="curve" smooth="yes"/>
      <point x="575" y="242"/>
      <point x="458" y="80"/>
      <point x="272" y="80" type="curve" smooth="yes"/>
    </contour>
  </outline>
</glyph>
<glyph name="H" format="1">
  <advance width="713"/>
  <unicode hex="0048"/>
  <outline>
    <contour>
      <point x="441" y="708" type="move" name="top"/>
    </contour>
    <contour>
      <point x="20" y="0" type="line"/>
      <point x="110" y="0" type="line"/>
      <point x="179" y="323" type="line"/>
      <point x="544" y="323" type="line"/>
      <point x="475" y="0" type="line"/>
      <point x="565" y="0" type="line"/>
      <point x="716" y="710" type="line"/>
      <point x="626" y="710" type="line"/>
      <point x="561" y="403" type="line"/>
      <point x="196" y="403" type="line"/>
      <point x="261" y="710" type="line"/>
      <point x="171" y="710" type="line"/>
    </contour>
  </outline>
</glyph>
<glyph name="U" format="1">
  <advance width="725"/>
  <unicode hex="0055"/>
  <outline>
    <contour>
      <point x="443" y="708" type="move" name="top"/>
    </contour>
    <contour>
      <point x="318" y="0" type="move" name="bottom"/>
    </contour>
    <contour>
      <point x="298" y="-5" type="curve" smooth="yes"/>
      <point x="505" y="-5"/>
      <point x="620" y="159"/>
      <point x="661" y="351" type="curve" smooth="yes"/>
      <point x="737" y="710" type="line"/>
      <point x="647" y="710" type="line"/>
      <point x="571" y="351" type="line" smooth="yes"/>
      <point x="542" y="215"/>
      <point x="468" y="76"/>
      <point x="314" y="76" type="curve" smooth="yes"/>
      <point x="201" y="76"/>
      <point x="163" y="151"/>
      <point x="163" y="247" type="curve" smooth="yes"/>
      <point x="163" y="280"/>
      <point x="167" y="315"/>
      <point x="175" y="351" type="curve" smooth="yes"/>
      <point x="251" y="710" type="line"/>
      <point x="161" y="710" type="line"/>
      <point x="85" y="351" type="line" smooth="yes"/>
      <point x="76" y="310"/>
      <point x="71" y="270"/>
      <point x="71" y="232" type="curve" smooth="yes"/>
      <point x="71" y="100"/>
      <point x="131" y="-5"/>
    </contour>
  </outline>
</glyph>
<glyph name="h" format="1">
  <advance width="567"/>
  <unicode hex="0068"/>
  <outline>
    <contour>
      <point x="306" y="521" type="move" name="top"/>
    </contour>
    <contour>
      <point x="5" y="0" type="line"/>
      <point x="93" y="0" type="line"/>
      <point x="160" y="315" type="line"/>
      <point x="198" y="394"/>
      <point x="281" y="452"/>
      <point x="344" y="452" type="curve" smooth="yes"/>
      <point x="394" y="452"/>
      <point x="421" y="421"/>
      <point x="421" y="360" type="curve" smooth="yes"/>
      <point x="421" y="340"/>
      <point x="418" y="318"/>
      <point x="413" y="292" type="curve" smooth="yes"/>
      <point x="351" y="0" type="line"/>
      <point x="439" y="0" type="line"/>
      <point x="505" y="312" type="line" smooth="yes"/>
      <point x="512" y="344"/>
      <point x="515" y="374"/>
      <point x="515" y="401" type="curve" smooth="yes"/>
      <point x="515" y="478"/>
      <point x="483" y="531"/>
      <point x="395" y="531" type="curve" smooth="yes"/>
      <point x="316" y="531"/>
      <point x="235" y="485"/>
      <point x="180" y="410" type="curve"/>
      <point x="248" y="730" type="line"/>
      <point x="160" y="730" type="line"/>
    </contour>
  </outline>
</glyph>
<glyph name="bar" format="1">
  <advance width="302"/>
  <unicode hex="007C"/>
  <outline>
    <contour>
      <point x="194" y="-130" type="line"/>
      <point x="194" y="775" type="line"/>
      <point x="118" y="775" type="line"/>
      <point x="118" y="-130" type="line"/>
    </contour>
  </outline>
</glyph>
<glyph name="sterling" format="1">
  <advance width="491"/>
  <unicode hex="00A3"/>
  <outline>
    <contour>
      <point x="55" y="307" type="line"/>
      <point x="161" y="307" type="line"/>
      <point x="161" y="212"/>
      <point x="123" y="162"/>
      <point x="1" y="56" type="curve"/>
      <point x="9" y="-8" type="line"/>
      <point x="46" y="3"/>
      <point x="91" y="10"/>
      <point x="122" y="10" type="curve" smooth="yes"/>
      <point x="182" y="10"/>
      <point x="225" y="-15"/>
      <point x="282" y="-15" type="curve" smooth="yes"/>
      <point x="317" y="-15"/>
      <point x="358" y="-5"/>
      <point x="393" y="12" type="curve"/>
      <point x="386" y="79" type="line"/>
      <point x="351" y="67"/>
      <point x="326" y="61"/>
      <point x="302" y="61" type="curve" smooth="yes"/>
      <point x="257" y="61"/>
      <point x="224" y="79"/>
      <point x="173" y="79" type="curve" smooth="yes"/>
      <point x="151" y="79"/>
      <point x="127" y="76"/>
      <point x="101" y="69" type="curve"/>
      <point x="219" y="178"/>
      <point x="240" y="230"/>
      <point x="240" y="307" type="curve"/>
      <point x="389" y="307" type="line"/>
      <point x="404" y="375" type="line"/>
      <point x="232" y="375" type="line"/>
      <point x="221" y="425"/>
      <point x="203" y="469"/>
      <point x="203" y="512" type="curve" smooth="yes"/>
      <point x="203" y="584"/>
      <point x="263" y="642"/>
      <point x="328" y="642" type="curve" smooth="yes"/>
      <point x="378" y="642"/>
      <point x="425" y="608"/>
      <point x="444" y="556" type="curve"/>
      <point x="504" y="610" type="line"/>
      <point x="476" y="675"/>
      <point x="417" y="715"/>
      <point x="345" y="715" type="curve" smooth="yes"/>
      <point x="233" y="715"/>
      <point x="123" y="623"/>
      <point x="123" y="512" type="curve" smooth="yes"/>
      <point x="123" y="467"/>
      <point x="140" y="422"/>
      <point x="151" y="375" type="curve"/>
      <point x="69" y="375" type="line"/>
    </contour>
  </outline>
</glyph>
<glyph name="logicalnot" format="1">
  <advance width="571"/>
  <unicode hex="00AC"/>
  <outline>
    <contour>
      <point x="82" y="375" type="line"/>
      <point x="65" y="295" type="line"/>
      <point x="424" y="295" type="line"/>
      <point x="387" y="120" type="line"/>
      <point x="462" y="120" type="line"/>
      <point x="517" y="375" type="line"/>
    </contour>
  </outline>
</glyph>
<glyph name="threesuperior" format="1">
  <advance width="379"/>
  <unicode hex="00B3"/>
  <outline>
    <contour>
      <point x="204" y="394" type="curve" smooth="yes"/>
      <point x="291" y="394"/>
      <point x="388" y="441"/>
      <point x="388" y="524" type="curve" smooth="yes"/>
      <point x="388" y="569"/>
      <point x="359" y="603"/>
      <point x="309" y="611" type="curve"/>
      <point x="378" y="625"/>
      <point x="418" y="662"/>
      <point x="418" y="713" type="curve" smooth="yes"/>
      <point x="418" y="771"/>
      <point x="366" y="811"/>
      <point x="287" y="811" type="curve" smooth="yes"/>
      <point x="227" y="811"/>
      <point x="162" y="788"/>
      <point x="129" y="749" type="curve"/>
      <point x="156" y="706" type="line"/>
      <point x="183" y="738"/>
      <point x="227" y="760"/>
      <point x="276" y="760" type="curve" smooth="yes"/>
      <point x="322" y="760"/>
      <point x="358" y="740"/>
      <point x="358" y="704" type="curve" smooth="yes"/>
      <point x="358" y="658"/>
      <point x="302" y="634"/>
      <point x="215" y="634" type="curve" smooth="yes"/>
      <point x="193" y="634" type="line"/>
      <point x="183" y="583" type="line"/>
      <point x="205" y="583" type="line" smooth="yes"/>
      <point x="285" y="583"/>
      <point x="333" y="562"/>
      <point x="333" y="522" type="curve" smooth="yes"/>
      <point x="333" y="479"/>
      <point x="275" y="450"/>
      <point x="214" y="450" type="curve" smooth="yes"/>
      <point x="142" y="450"/>
      <point x="109" y="490"/>
      <point x="109" y="518" type="curve"/>
      <point x="69" y="480" type="line"/>
      <point x="81" y="429"/>
      <point x="128" y="394"/>
    </contour>
  </outline>
</glyph>
<glyph name="acute" format="1">
  <advance width="222"/>
  <unicode hex="00B4"/>
  <outline>
    <contour>
      <point x="91" y="522" type="move" name="_top"/>
    </contour>
    <contour>
      <point x="192" y="730" type="line"/>
      <point x="105" y="730" type="line"/>
      <point x="29" y="629" type="line"/>
      <point x="83" y="609" type="line"/>
    </contour>
  </outline>
</glyph>
<glyph name="Edieresis" format="1">
  <advance width="580"/>
  <unicode hex="00CB"/>
  <outline>
    <contour>
      <point x="378" y="811" type="line"/>
      <point x="400" y="913" type="line"/>
      <point x="326" y="913" type="line"/>
      <point x="304" y="811" type="line"/>
    </contour>
    <contour>
      <point x="535" y="811" type="line"/>
      <point x="556" y="913" type="line"/>
      <point x="483" y="913" type="line"/>
      <point x="461" y="811" type="line"/>
    </contour>
    <contour>
      <point x="20" y="0" type="line"/>
      <point x="479" y="0" type="line"/>
      <point x="496" y="80" type="line"/>
      <point x="127" y="80" type="line"/>
      <point x="179" y="325" type="line"/>
      <point x="492" y="325" type="line"/>
      <point x="508" y="400" type="line"/>
      <point x="195" y="400" type="line"/>
      <point x="244" y="630" type="line"/>
      <point x="604" y="630" type="line"/>
      <point x="621" y="710" type="line"/>
      <point x="171" y="710" type="line"/>
    </contour>
  </outline>
</glyph>
<glyph name="Igrave" format="1">
  <advance width="258"/>
  <unicode hex="00CC"/>
  <outline>
    <contour>
      <point x="20" y="0" type="line"/>
      <point x="110" y="0" type="line"/>
      <point x="261" y="709" type="line"/>
      <point x="171" y="709" type="line"/>
    </contour>
    <contour>
      <point x="223" y="796" type="line"/>
      <point x="284" y="816" type="line"/>
      <point x="250" y="917" type="line"/>
      <point x="164" y="917" type="line"/>
    </contour>
  </outline>
</glyph>
<glyph name="Idieresis" format="1">
  <advance width="258"/>
  <unicode hex="00CF"/>
  <outline>
    <contour>
      <point x="20" y="0" type="line"/>
      <point x="110" y="0" type="line"/>
      <point x="261" y="709" type="line"/>
      <point x="171" y="709" type="line"/>
    </contour>
    <contour>
      <point x="195" y="811" type="line"/>
      <point x="217" y="913" type="line"/>
      <point x="143" y="913" type="line"/>
      <point x="121" y="811" type="line"/>
    </contour>
    <contour>
      <point x="352" y="811" type="line"/>
      <point x="373" y="913" type="line"/>
      <point x="300" y="913" type="line"/>
      <point x="278" y="811" type="line"/>
    </contour>
  </outline>
</glyph>
<glyph name="Otilde" format="1">
  <advance width="721"/>
  <unicode hex="00D5"/>
  <outline>
    <contour>
      <point x="295" y="-5" type="curve" smooth="yes"/>
      <point x="504" y="-5"/>
      <point x="699" y="205"/>
      <point x="699" y="420" type="curve" smooth="yes"/>
      <point x="699" y="571"/>
      <point x="611" y="715"/>
      <point x="450" y="715" type="curve" smooth="yes"/>
      <point x="241" y="715"/>
      <point x="44" y="505"/>
      <point x="44" y="288" type="curve" smooth="yes"/>
      <point x="44" y="135"/>
      <point x="134" y="-5"/>
    </contour>
    <contour>
      <point x="313" y="76" type="curve" smooth="yes"/>
      <point x="198" y="76"/>
      <point x="136" y="178"/>
      <point x="136" y="296" type="curve" smooth="yes"/>
      <point x="136" y="456"/>
      <point x="267" y="633"/>
      <point x="431" y="633" type="curve" smooth="yes"/>
      <point x="544" y="633"/>
      <point x="607" y="531"/>
      <point x="607" y="413" type="curve" smooth="yes"/>
      <point x="607" y="255"/>
      <point x="477" y="76"/>
    </contour>
    <contour>
      <point x="532" y="813" type="curve" smooth="yes"/>
      <point x="614" y="813"/>
      <point x="653" y="901"/>
      <point x="656" y="916" type="curve"/>
      <point x="605" y="916" type="line"/>
      <point x="604" y="912"/>
      <point x="589" y="867"/>
      <point x="541" y="867" type="curve" smooth="yes"/>
      <point x="495" y="867"/>
      <point x="482" y="910"/>
      <point x="428" y="910" type="curve" smooth="yes"/>
      <point x="352" y="910"/>
      <point x="314" y="824"/>
      <point x="310" y="807" type="curve"/>
      <point x="362" y="807" type="line"/>
      <point x="362" y="811"/>
      <point x="376" y="855"/>
      <point x="418" y="855" type="curve" smooth="yes"/>
      <point x="459" y="855"/>
      <point x="475" y="813"/>
    </contour>
  </outline>
</glyph>
<glyph name="Oslash" format="1">
  <advance width="721"/>
  <unicode hex="00D8"/>
  <outline>
    <contour>
      <point x="630" y="710" type="line"/>
      <point x="593" y="666" type="line"/>
      <point x="555" y="696"/>
      <point x="507" y="715"/>
      <point x="450" y="715" type="curve" smooth="yes"/>
      <point x="241" y="715"/>
      <point x="44" y="505"/>
      <point x="44" y="288" type="curve" smooth="yes"/>
      <point x="44" y="216"/>
      <point x="64" y="146"/>
      <point x="102" y="93" type="curve"/>
      <point x="22" y="0" type="line"/>
      <point x="120" y="0" type="line"/>
      <point x="154" y="40" type="line"/>
      <point x="192" y="12"/>
      <point x="239" y="-5"/>
      <point x="295" y="-5" type="curve" smooth="yes"/>
      <point x="504" y="-5"/>
      <point x="699" y="205"/>
      <point x="699" y="420" type="curve" smooth="yes"/>
      <point x="699" y="490"/>
      <point x="680" y="558"/>
      <point x="644" y="611" type="curve"/>
      <point x="728" y="710" type="line"/>
    </contour>
    <contour>
      <point x="136" y="296" type="curve" smooth="yes"/>
      <point x="136" y="456"/>
      <point x="267" y="633"/>
      <point x="431" y="633" type="curve" smooth="yes"/>
      <point x="472" y="633"/>
      <point x="506" y="619"/>
      <point x="533" y="597" type="curve"/>
      <point x="165" y="167" type="line"/>
      <point x="145" y="203"/>
      <point x="136" y="248"/>
    </contour>
    <contour>
      <point x="313" y="76" type="curve" smooth="yes"/>
      <point x="273" y="76"/>
      <point x="240" y="88"/>
      <point x="213" y="109" type="curve"/>
      <point x="580" y="537" type="line"/>
      <point x="598" y="501"/>
      <point x="607" y="458"/>
      <point x="607" y="413" type="curve" smooth="yes"/>
      <point x="607" y="255"/>
      <point x="477" y="76"/>
    </contour>
  </outline>
</glyph>
<glyph name="atilde" format="1">
  <advance width="606"/>
  <unicode hex="00E3"/>
  <outline>
    <contour>
      <point x="208" y="-10" type="curve" smooth="yes"/>
      <point x="279" y="-10"/>
      <point x="359" y="31"/>
      <point x="411" y="98" type="curve"/>
      <point x="405" y="71"/>
      <point x="402" y="53"/>
      <point x="402" y="41" type="curve" smooth="yes"/>
      <point x="402" y="15"/>
      <point x="422" y="-4"/>
      <point x="459" y="-4" type="curve" smooth="yes"/>
      <point x="468" y="-4"/>
      <point x="479" y="-2"/>
      <point x="494" y="0" type="curve"/>
      <point x="510" y="76" type="line"/>
      <point x="495" y="77"/>
      <point x="488" y="82"/>
      <point x="488" y="95" type="curve" smooth="yes"/>
      <point x="488" y="99"/>
      <point x="489" y="103"/>
      <point x="490" y="108" type="curve" smooth="yes"/>
      <point x="578" y="522" type="line"/>
      <point x="490" y="522" type="line"/>
      <point x="467" y="418" type="line"/>
      <point x="445" y="481"/>
      <point x="391" y="531"/>
      <point x="311" y="531" type="curve" smooth="yes"/>
      <point x="159" y="531"/>
      <point x="22" y="374"/>
      <point x="22" y="207" type="curve" smooth="yes"/>
      <point x="22" y="89"/>
      <point x="91" y="-10"/>
    </contour>
    <contour>
      <point x="246" y="66" type="curve" smooth="yes"/>
      <point x="166" y="66"/>
      <point x="115" y="135"/>
      <point x="115" y="221" type="curve" smooth="yes"/>
      <point x="115" y="334"/>
      <point x="210" y="455"/>
      <point x="321" y="455" type="curve" smooth="yes"/>
      <point x="382" y="455"/>
      <point x="440" y="401"/>
      <point x="449" y="333" type="curve"/>
      <point x="418" y="183" type="line"/>
      <point x="391" y="118"/>
      <point x="304" y="66"/>
    </contour>
    <contour>
      <point x="402" y="627" type="curve" smooth="yes"/>
      <point x="484" y="627"/>
      <point x="523" y="715"/>
      <point x="526" y="730" type="curve"/>
      <point x="475" y="730" type="line"/>
      <point x="474" y="726"/>
      <point x="459" y="681"/>
      <point x="411" y="681" type="curve" smooth="yes"/>
      <point x="365" y="681"/>
      <point x="352" y="724"/>
      <point x="298" y="724" type="curve" smooth="yes"/>
      <point x="222" y="724"/>
      <point x="184" y="638"/>
      <point x="180" y="621" type="curve"/>
      <point x="232" y="621" type="line"/>
      <point x="232" y="625"/>
      <point x="246" y="669"/>
      <point x="288" y="669" type="curve" smooth="yes"/>
      <point x="329" y="669"/>
      <point x="345" y="627"/>
    </contour>
  </outline>
</glyph>
<glyph name="eth" format="1">
  <advance width="583"/>
  <unicode hex="00F0"/>
  <outline>
    <contour>
      <point x="544" y="713" type="line"/>
      <point x="452" y="662" type="line"/>
      <point x="432" y="687"/>
      <point x="408" y="710"/>
      <point x="380" y="730" type="curve"/>
      <point x="258" y="730" type="line"/>
      <point x="308" y="696"/>
      <point x="347" y="661"/>
      <point x="376" y="627" type="curve"/>
      <point x="273" y="569" type="line"/>
      <point x="292" y="532" type="line"/>
      <point x="402" y="594" type="line"/>
      <point x="438" y="541"/>
      <point x="454" y="487"/>
      <point x="461" y="432" type="curve" smooth="yes"/>
      <point x="464" y="411"/>
      <point x="465" y="390"/>
      <point x="465" y="368" type="curve"/>
      <point x="444" y="431"/>
      <point x="384" y="473"/>
      <point x="306" y="473" type="curve" smooth="yes"/>
      <point x="161" y="473"/>
      <point x="18" y="341"/>
      <point x="18" y="191" type="curve" smooth="yes"/>
      <point x="18" y="78"/>
      <point x="100" y="-10"/>
      <point x="218" y="-10" type="curve" smooth="yes"/>
      <point x="382" y="-10"/>
      <point x="549" y="138"/>
      <point x="549" y="372" type="curve" smooth="yes"/>
      <point x="549" y="450"/>
      <point x="529" y="546"/>
      <point x="476" y="628" type="curve"/>
      <point x="563" y="676" type="line"/>
    </contour>
    <contour>
      <point x="109" y="202" type="curve" smooth="yes"/>
      <point x="109" y="309"/>
      <point x="208" y="401"/>
      <point x="312" y="401" type="curve" smooth="yes"/>
      <point x="389" y="401"/>
      <point x="441" y="344"/>
      <point x="441" y="268" type="curve" smooth="yes"/>
      <point x="441" y="164"/>
      <point x="342" y="66"/>
      <point x="237" y="66" type="curve" smooth="yes"/>
      <point x="161" y="66"/>
      <point x="109" y="126"/>
    </contour>
  </outline>
</glyph>
<glyph name="ograve" format="1">
  <advance width="578"/>
  <unicode hex="00F2"/>
  <outline>
    <contour>
      <point x="222" y="-10" type="curve" smooth="yes"/>
      <point x="395" y="-10"/>
      <point x="539" y="146"/>
      <point x="539" y="312" type="curve" smooth="yes"/>
      <point x="539" y="432"/>
      <point x="465" y="531"/>
      <point x="337" y="531" type="curve" smooth="yes"/>
      <point x="166" y="531"/>
      <point x="22" y="375"/>
      <point x="22" y="208" type="curve" smooth="yes"/>
      <point x="22" y="89"/>
      <point x="94" y="-10"/>
    </contour>
    <contour>
      <point x="239" y="66" type="curve" smooth="yes"/>
      <point x="163" y="66"/>
      <point x="113" y="131"/>
      <point x="113" y="219" type="curve" smooth="yes"/>
      <point x="113" y="345"/>
      <point x="219" y="455"/>
      <point x="321" y="455" type="curve" smooth="yes"/>
      <point x="397" y="455"/>
      <point x="447" y="388"/>
      <point x="447" y="301" type="curve" smooth="yes"/>
      <point x="447" y="174"/>
      <point x="342" y="66"/>
    </contour>
    <contour>
      <point x="336" y="609" type="line"/>
      <point x="397" y="629" type="line"/>
      <point x="363" y="730" type="line"/>
      <point x="277" y="730" type="line"/>
    </contour>
  </outline>
</glyph>
<glyph name="ugrave" format="1">
  <advance width="577"/>
  <unicode hex="00F9"/>
  <outline>
    <contour>
      <point x="155" y="-10" type="curve" smooth="yes"/>
      <point x="240" y="-10"/>
      <point x="326" y="34"/>
      <point x="386" y="112" type="curve"/>
      <point x="377" y="69"/>
      <point x="375" y="52"/>
      <point x="375" y="40" type="curve" smooth="yes"/>
      <point x="375" y="13"/>
      <point x="394" y="-4"/>
      <point x="430" y="-4" type="curve" smooth="yes"/>
      <point x="439" y="-4"/>
      <point x="450" y="-2"/>
      <point x="465" y="0" type="curve"/>
      <point x="481" y="76" type="line"/>
      <point x="466" y="77"/>
      <point x="459" y="82"/>
      <point x="459" y="95" type="curve" smooth="yes"/>
      <point x="459" y="99"/>
      <point x="460" y="103"/>
      <point x="461" y="108" type="curve" smooth="yes"/>
      <point x="549" y="522" type="line"/>
      <point x="461" y="522" type="line"/>
      <point x="392" y="195" type="line"/>
      <point x="345" y="115"/>
      <point x="271" y="66"/>
      <point x="204" y="66" type="curve" smooth="yes"/>
      <point x="153" y="66"/>
      <point x="126" y="96"/>
      <point x="126" y="157" type="curve" smooth="yes"/>
      <point x="126" y="176"/>
      <point x="129" y="199"/>
      <point x="135" y="226" type="curve" smooth="yes"/>
      <point x="198" y="522" type="line"/>
      <point x="111" y="522" type="line"/>
      <point x="44" y="209" type="line" smooth="yes"/>
      <point x="37" y="176"/>
      <point x="33" y="147"/>
      <point x="33" y="122" type="curve" smooth="yes"/>
      <point x="33" y="35"/>
      <point x="74" y="-10"/>
    </contour>
    <contour>
      <point x="327" y="609" type="line"/>
      <point x="388" y="629" type="line"/>
      <point x="354" y="730" type="line"/>
      <point x="268" y="730" type="line"/>
    </contour>
  </outline>
</glyph>
<glyph name="yacute" format="1">
  <advance width="501"/>
  <unicode hex="00FD"/>
  <outline>
    <contour>
      <point x="-23" y="-224" type="line"/>
      <point x="76" y="-222"/>
      <point x="139" y="-172"/>
      <point x="230" y="-26" type="curve" smooth="yes"/>
      <point x="310" y="103" type="line" smooth="yes"/>
      <point x="442" y="316"/>
      <point x="480" y="393"/>
      <point x="516" y="522" type="curve"/>
      <point x="429" y="522" type="line"/>
      <point x="398" y="401"/>
      <point x="359" y="318"/>
      <point x="248" y="135" type="curve" smooth="yes"/>
      <point x="214" y="79" type="line"/>
      <point x="142" y="522" type="line"/>
      <point x="51" y="522" type="line"/>
      <point x="152" y="-11" type="line"/>
      <point x="123" y="-55" type="line" smooth="yes"/>
      <point x="77" y="-124"/>
      <point x="49" y="-141"/>
      <point x="-35" y="-153" type="curve"/>
    </contour>
    <contour>
      <point x="405" y="730" type="line"/>
      <point x="318" y="730" type="line"/>
      <point x="242" y="629" type="line"/>
      <point x="296" y="609" type="line"/>
    </contour>
  </outline>
</glyph>
<glyph name="thorn" format="1">
  <advance width="578"/>
  <unicode hex="00FE"/>
  <outline>
    <contour>
      <point x="-40" y="-213" type="line"/>
      <point x="50" y="-213" type="line"/>
      <point x="108" y="60" type="line"/>
      <point x="123" y="20"/>
      <point x="158" y="-18"/>
      <point x="238" y="-18" type="curve" smooth="yes"/>
      <point x="416" y="-18"/>
      <point x="541" y="170"/>
      <point x="541" y="321" type="curve" smooth="yes"/>
      <point x="541" y="429"/>
      <point x="478" y="534"/>
      <point x="356" y="534" type="curve" smooth="yes"/>
      <point x="282" y="534"/>
      <point x="230" y="495"/>
      <point x="191" y="449" type="curve"/>
      <point x="246" y="710" type="line"/>
      <point x="156" y="710" type="line"/>
    </contour>
    <contour>
      <point x="254" y="62" type="curve" smooth="yes"/>
      <point x="184" y="62"/>
      <point x="130" y="109"/>
      <point x="130" y="158" type="curve" smooth="yes"/>
      <point x="130" y="164"/>
      <point x="131" y="168"/>
      <point x="132" y="173" type="curve" smooth="yes"/>
      <point x="168" y="344" type="line"/>
      <point x="209" y="403"/>
      <point x="267" y="454"/>
      <point x="332" y="454" type="curve" smooth="yes"/>
      <point x="409" y="454"/>
      <point x="450" y="384"/>
      <point x="450" y="301" type="curve" smooth="yes"/>
      <point x="450" y="180"/>
      <point x="364" y="62"/>
    </contour>
  </outline>
</glyph>
<glyph name="Aogonek" format="1">
  <advance width="652"/>
  <unicode hex="0104"/>
  <outline>
    <contour>
      <point x="494" y="-181" type="curve"/>
      <point x="525" y="-135" type="line"/>
      <point x="495" y="-132"/>
      <point x="480" y="-119"/>
      <point x="480" y="-99" type="curve" smooth="yes"/>
      <point x="480" y="-69"/>
      <point x="507" y="-41"/>
      <point x="578" y="0" type="curve"/>
      <point x="455" y="710" type="line"/>
      <point x="378" y="710" type="line"/>
      <point x="-47" y="0" type="line"/>
      <point x="49" y="0" type="line"/>
      <point x="170" y="208" type="line"/>
      <point x="448" y="208" type="line"/>
      <point x="482" y="0" type="line"/>
      <point x="523" y="0" type="line"/>
      <point x="456" y="-40"/>
      <point x="426" y="-77"/>
      <point x="426" y="-116" type="curve" smooth="yes"/>
      <point x="426" y="-147"/>
      <point x="449" y="-172"/>
    </contour>
    <contour>
      <point x="202" y="278" type="line"/>
      <point x="395" y="606" type="line"/>
      <point x="444" y="278" type="line"/>
    </contour>
  </outline>
</glyph>
<glyph name="cdotaccent" format="1">
  <advance width="531"/>
  <unicode hex="010B"/>
  <outline>
    <contour>
      <point x="225" y="-10" type="curve" smooth="yes"/>
      <point x="326" y="-10"/>
      <point x="420" y="45"/>
      <point x="466" y="121" type="curve"/>
      <point x="385" y="147" type="line"/>
      <point x="361" y="103"/>
      <point x="296" y="66"/>
      <point x="239" y="66" type="curve" smooth="yes"/>
      <point x="164" y="66"/>
      <point x="113" y="133"/>
      <point x="113" y="221" type="curve" smooth="yes"/>
      <point x="113" y="350"/>
      <point x="215" y="455"/>
      <point x="321" y="455" type="curve" smooth="yes"/>
      <point x="375" y="455"/>
      <point x="416" y="426"/>
      <point x="431" y="377" type="curve"/>
      <point x="522" y="404" type="line"/>
      <point x="502" y="481"/>
      <point x="438" y="531"/>
      <point x="339" y="531" type="curve" smooth="yes"/>
      <point x="163" y="531"/>
      <point x="22" y="378"/>
      <point x="22" y="210" type="curve" smooth="yes"/>
      <point x="22" y="89"/>
      <point x="97" y="-10"/>
    </contour>
    <contour>
      <point x="397" y="624" type="line"/>
      <point x="419" y="730" type="line"/>
      <point x="340" y="730" type="line"/>
      <point x="317" y="624" type="line"/>
    </contour>
  </outline>
</glyph>
<glyph name="Ccaron" format="1">
  <advance width="653"/>
  <unicode hex="010C"/>
  <outline>
    <contour>
      <point x="444" y="802" type="line"/>
      <point x="508" y="802" type="line"/>
      <point x="624" y="892" type="line"/>
      <point x="581" y="916" type="line"/>
      <point x="487" y="853" type="line"/>
      <point x="420" y="916" type="line"/>
      <point x="367" y="892" type="line"/>
    </contour>
    <contour>
      <point x="293" y="-6" type="curve" smooth="yes"/>
      <point x="398" y="-6"/>
      <point x="532" y="53"/>
      <point x="597" y="159" type="curve"/>
      <point x="531" y="200" type="line"/>
      <point x="474" y="112"/>
      <point x="384" y="75"/>
      <point x="314" y="75" type="curve" smooth="yes"/>
      <point x="203" y="75"/>
      <point x="136" y="178"/>
      <point x="136" y="299" type="curve" smooth="yes"/>
      <point x="136" y="450"/>
      <point x="257" y="633"/>
      <point x="430" y="633" type="curve" smooth="yes"/>
      <point x="498" y="633"/>
      <point x="569" y="603"/>
      <point x="589" y="513" type="curve"/>
      <point x="670" y="559" type="line"/>
      <point x="647" y="650"/>
      <point x="571" y="714"/>
      <point x="451" y="714" type="curve" smooth="yes"/>
      <point x="217" y="714"/>
      <point x="45" y="489"/>
      <point x="45" y="294" type="curve" smooth="yes"/>
      <point x="45" y="141"/>
      <point x="135" y="-6"/>
    </contour>
  </outline>
</glyph>
<glyph name="Dcaron" format="1">
  <advance width="692"/>
  <unicode hex="010E"/>
  <outline>
    <contour>
      <point x="387" y="802" type="line"/>
      <point x="451" y="802" type="line"/>
      <point x="567" y="892" type="line"/>
      <point x="524" y="916" type="line"/>
      <point x="430" y="853" type="line"/>
      <point x="363" y="916" type="line"/>
      <point x="310" y="892" type="line"/>
    </contour>
    <contour>
      <point x="20" y="0" type="line"/>
      <point x="255" y="0" type="line"/>
      <point x="492" y="0"/>
      <point x="668" y="186"/>
      <point x="668" y="437" type="curve" smooth="yes"/>
      <point x="668" y="590"/>
      <point x="585" y="710"/>
      <point x="406" y="710" type="curve" smooth="yes"/>
      <point x="171" y="710" type="line"/>
    </contour>
    <contour>
      <point x="127" y="80" type="line"/>
      <point x="244" y="630" type="line"/>
      <point x="389" y="630" type="line" smooth="yes"/>
      <point x="512" y="630"/>
      <point x="575" y="544"/>
      <point x="575" y="423" type="curve" smooth="yes"/>
      <point x="575" y="242"/>
      <point x="458" y="80"/>
      <point x="272" y="80" type="curve" smooth="yes"/>
    </contour>
  </outline>
</glyph>
<glyph name="ebreve" format="1">
  <advance width="539"/>
  <unicode hex="0115"/>
  <outline>
    <contour>
      <point x="228" y="-10" type="curve" smooth="yes"/>
      <point x="326" y="-10"/>
      <point x="423" y="45"/>
      <point x="472" y="122" type="curve"/>
      <point x="401" y="143" type="line"/>
      <point x="368" y="90"/>
      <point x="303" y="56"/>
      <point x="242" y="56" type="curve" smooth="yes"/>
      <point x="153" y="56"/>
      <point x="112" y="128"/>
      <point x="112" y="211" type="curve" smooth="yes"/>
      <point x="112" y="218"/>
      <point x="112" y="226"/>
      <point x="113" y="234" type="curve"/>
      <point x="156" y="230"/>
      <point x="196" y="229"/>
      <point x="228" y="229" type="curve" smooth="yes"/>
      <point x="421" y="229"/>
      <point x="513" y="284"/>
      <point x="513" y="390" type="curve" smooth="yes"/>
      <point x="513" y="483"/>
      <point x="443" y="531"/>
      <point x="341" y="531" type="curve" smooth="yes"/>
      <point x="160" y="531"/>
      <point x="23" y="378"/>
      <point x="23" y="210" type="curve" smooth="yes"/>
      <point x="23" y="87"/>
      <point x="97" y="-10"/>
    </contour>
    <contour>
      <point x="333" y="465" type="curve" smooth="yes"/>
      <point x="394" y="465"/>
      <point x="434" y="442"/>
      <point x="434" y="391" type="curve" smooth="yes"/>
      <point x="434" y="333"/>
      <point x="382" y="290"/>
      <point x="231" y="290" type="curve" smooth="yes"/>
      <point x="200" y="290"/>
      <point x="165" y="291"/>
      <point x="125" y="295" type="curve"/>
      <point x="151" y="381"/>
      <point x="218" y="465"/>
    </contour>
    <contour>
      <point x="354" y="662" type="curve" smooth="yes"/>
      <point x="329" y="662"/>
      <point x="312" y="685"/>
      <point x="312" y="713" type="curve" smooth="yes"/>
      <point x="312" y="719"/>
      <point x="313" y="724"/>
      <point x="314" y="730" type="curve"/>
      <point x="263" y="730" type="line"/>
      <point x="261" y="721"/>
      <point x="260" y="713"/>
      <point x="260" y="704" type="curve" smooth="yes"/>
      <point x="260" y="654"/>
      <point x="293" y="619"/>
      <point x="345" y="619" type="curve" smooth="yes"/>
      <point x="404" y="619"/>
      <point x="460" y="667"/>
      <point x="473" y="730" type="curve"/>
      <point x="423" y="730" type="line"/>
      <point x="411" y="691"/>
      <point x="381" y="662"/>
    </contour>
  </outline>
</glyph>
<glyph name="eogonek" format="1">
  <advance width="539"/>
  <unicode hex="0119"/>
  <outline>
    <contour>
      <point x="192" y="-186" type="curve"/>
      <point x="223" y="-140" type="line"/>
      <point x="193" y="-137"/>
      <point x="178" y="-124"/>
      <point x="178" y="-104" type="curve" smooth="yes"/>
      <point x="178" y="-74"/>
      <point x="204" y="-46"/>
      <point x="274" y="-6" type="curve"/>
      <point x="355" y="8"/>
      <point x="430" y="57"/>
      <point x="472" y="122" type="curve"/>
      <point x="401" y="143" type="line"/>
      <point x="368" y="90"/>
      <point x="303" y="56"/>
      <point x="242" y="56" type="curve" smooth="yes"/>
      <point x="153" y="56"/>
      <point x="112" y="128"/>
      <point x="112" y="211" type="curve" smooth="yes"/>
      <point x="112" y="218"/>
      <point x="112" y="226"/>
      <point x="113" y="234" type="curve"/>
      <point x="156" y="230"/>
      <point x="196" y="229"/>
      <point x="228" y="229" type="curve" smooth="yes"/>
      <point x="421" y="229"/>
      <point x="513" y="284"/>
      <point x="513" y="390" type="curve" smooth="yes"/>
      <point x="513" y="483"/>
      <point x="443" y="531"/>
      <point x="341" y="531" type="curve" smooth="yes"/>
      <point x="160" y="531"/>
      <point x="23" y="378"/>
      <point x="23" y="210" type="curve" smooth="yes"/>
      <point x="23" y="91"/>
      <point x="92" y="-3"/>
      <point x="214" y="-10" type="curve"/>
      <point x="152" y="-48"/>
      <point x="124" y="-84"/>
      <point x="124" y="-121" type="curve" smooth="yes"/>
      <point x="124" y="-152"/>
      <point x="147" y="-177"/>
    </contour>
    <contour>
      <point x="333" y="465" type="curve" smooth="yes"/>
      <point x="394" y="465"/>
      <point x="434" y="442"/>
      <point x="434" y="391" type="curve" smooth="yes"/>
      <point x="434" y="333"/>
      <point x="382" y="290"/>
      <point x="231" y="290" type="curve" smooth="yes"/>
      <point x="200" y="290"/>
      <point x="165" y="291"/>
      <point x="125" y="295" type="curve"/>
      <point x="151" y="381"/>
      <point x="218" y="465"/>
    </contour>
  </outline>
</glyph>
<glyph name="gbreve" format="1">
  <advance width="599"/>
  <unicode hex="011F"/>
  <outline>
    <contour>
      <point x="164" y="-223" type="curve" smooth="yes"/>
      <point x="306" y="-223"/>
      <point x="436" y="-142"/>
      <point x="467" y="6" type="curve" smooth="yes"/>
      <point x="577" y="522" type="line"/>
      <point x="499" y="522" type="line"/>
      <point x="477" y="418" type="line"/>
      <point x="449" y="483"/>
      <point x="399" y="531"/>
      <point x="317" y="531" type="curve" smooth="yes"/>
      <point x="159" y="531"/>
      <point x="22" y="374"/>
      <point x="22" y="207" type="curve" smooth="yes"/>
      <point x="22" y="93"/>
      <point x="88" y="-6"/>
      <point x="201" y="-6" type="curve" smooth="yes"/>
      <point x="271" y="-6"/>
      <point x="349" y="34"/>
      <point x="398" y="98" type="curve"/>
      <point x="379" y="6" type="line" smooth="yes"/>
      <point x="356" y="-103"/>
      <point x="268" y="-155"/>
      <point x="178" y="-155" type="curve" smooth="yes"/>
      <point x="107" y="-155"/>
      <point x="48" y="-124"/>
      <point x="22" y="-63" type="curve"/>
      <point x="-38" y="-108" type="line"/>
      <point x="-6" y="-179"/>
      <point x="52" y="-223"/>
    </contour>
    <contour>
      <point x="244" y="66" type="curve" smooth="yes"/>
      <point x="165" y="66"/>
      <point x="113" y="136"/>
      <point x="113" y="221" type="curve" smooth="yes"/>
      <point x="113" y="329"/>
      <point x="205" y="455"/>
      <point x="319" y="455" type="curve" smooth="yes"/>
      <point x="383" y="455"/>
      <point x="438" y="404"/>
      <point x="449" y="333" type="curve"/>
      <point x="417" y="183" type="line"/>
      <point x="391" y="124"/>
      <point x="313" y="66"/>
    </contour>
    <contour>
      <point x="342" y="662" type="curve" smooth="yes"/>
      <point x="317" y="662"/>
      <point x="300" y="685"/>
      <point x="300" y="713" type="curve" smooth="yes"/>
      <point x="300" y="719"/>
      <point x="301" y="724"/>
      <point x="302" y="730" type="curve"/>
      <point x="251" y="730" type="line"/>
      <point x="249" y="721"/>
      <point x="248" y="713"/>
      <point x="248" y="704" type="curve" smooth="yes"/>
      <point x="248" y="654"/>
      <point x="281" y="619"/>
      <point x="333" y="619" type="curve" smooth="yes"/>
      <point x="392" y="619"/>
      <point x="448" y="667"/>
      <point x="461" y="730" type="curve"/>
      <point x="411" y="730" type="line"/>
      <point x="399" y="691"/>
      <point x="369" y="662"/>
    </contour>
  </outline>
</glyph>
<glyph name="Itilde" format="1">
  <advance width="258"/>
  <unicode hex="0128"/>
  <outline>
    <contour>
      <point x="20" y="0" type="line"/>
      <point x="110" y="0" type="line"/>
      <point x="261" y="709" type="line"/>
      <point x="171" y="709" type="line"/>
    </contour>
    <contour>
      <point x="299" y="813" type="curve" smooth="yes"/>
      <point x="381" y="813"/>
      <point x="420" y="901"/>
      <point x="423" y="916" type="curve"/>
      <point x="372" y="916" type="line"/>
      <point x="371" y="912"/>
      <point x="356" y="867"/>
      <point x="308" y="867" type="curve" smooth="yes"/>
      <point x="262" y="867"/>
      <point x="249" y="910"/>
      <point x="195" y="910" type="curve" smooth="yes"/>
      <point x="119" y="910"/>
      <point x="81" y="824"/>
      <point x="77" y="807" type="curve"/>
      <point x="129" y="807" type="line"/>
      <point x="129" y="811"/>
      <point x="143" y="855"/>
      <point x="185" y="855" type="curve" smooth="yes"/>
      <point x="226" y="855"/>
      <point x="242" y="813"/>
    </contour>
  </outline>
</glyph>
<glyph name="ibreve" format="1">
  <advance width="226"/>
  <unicode hex="012D"/>
  <outline>
    <contour>
      <point x="5" y="0" type="line"/>
      <point x="93" y="0" type="line"/>
      <point x="204" y="522" type="line"/>
      <point x="116" y="522" type="line"/>
    </contour>
    <contour>
      <point x="179" y="662" type="curve" smooth="yes"/>
      <point x="154" y="662"/>
      <point x="137" y="685"/>
      <point x="137" y="713" type="curve" smooth="yes"/>
      <point x="137" y="719"/>
      <point x="138" y="724"/>
      <point x="139" y="730" type="curve"/>
      <point x="88" y="730" type="line"/>
      <point x="86" y="721"/>
      <point x="85" y="713"/>
      <point x="85" y="704" type="curve" smooth="yes"/>
      <point x="85" y="654"/>
      <point x="118" y="619"/>
      <point x="170" y="619" type="curve" smooth="yes"/>
      <point x="229" y="619"/>
      <point x="285" y="667"/>
      <point x="298" y="730" type="curve"/>
      <point x="248" y="730" type="line"/>
      <point x="236" y="691"/>
      <point x="206" y="662"/>
    </contour>
  </outline>
</glyph>
<glyph name="Iogonek" format="1">
  <advance width="258"/>
  <unicode hex="012E"/>
  <outline>
    <contour>
      <point x="20" y="0" type="line"/>
      <point x="55" y="0" type="line"/>
      <point x="-12" y="-40"/>
      <point x="-42" y="-77"/>
      <point x="-42" y="-116" type="curve" smooth="yes"/>
      <point x="-42" y="-147"/>
      <point x="-19" y="-172"/>
      <point x="26" y="-181" type="curve"/>
      <point x="57" y="-135" type="line"/>
      <point x="27" y="-132"/>
      <point x="12" y="-119"/>
      <point x="12" y="-99" type="curve" smooth="yes"/>
      <point x="12" y="-69"/>
      <point x="39" y="-41"/>
      <point x="110" y="0" type="curve"/>
      <point x="261" y="709" type="line"/>
      <point x="171" y="709" type="line"/>
    </contour>
  </outline>
</glyph>
<glyph name="iogonek" format="1">
  <advance width="226"/>
  <unicode hex="012F"/>
  <outline>
    <contour>
      <point x="5" y="0" type="line"/>
      <point x="38" y="0" type="line"/>
      <point x="-29" y="-40"/>
      <point x="-59" y="-77"/>
      <point x="-59" y="-116" type="curve" smooth="yes"/>
      <point x="-59" y="-147"/>
      <point x="-36" y="-172"/>
      <point x="9" y="-181" type="curve"/>
      <point x="40" y="-135" type="line"/>
      <point x="10" y="-132"/>
      <point x="-5" y="-119"/>
      <point x="-5" y="-99" type="curve" smooth="yes"/>
      <point x="-5" y="-69"/>
      <point x="22" y="-41"/>
      <point x="93" y="0" type="curve"/>
      <point x="204" y="522" type="line"/>
      <point x="116" y="522" type="line"/>
    </contour>
    <contour>
      <point x="137" y="620" type="line"/>
      <point x="225" y="620" type="line"/>
      <point x="248" y="730" type="line"/>
      <point x="160" y="730" type="line"/>
    </contour>
  </outline>
</glyph>
<glyph name="ij" format="1">
  <advance width="458"/>
  <unicode hex="0133"/>
  <outline>
    <contour>
      <point x="5" y="0" type="line"/>
      <point x="93" y="0" type="line"/>
      <point x="204" y="522" type="line"/>
      <point x="116" y="522" type="line"/>
    </contour>
    <contour>
      <point x="137" y="620" type="line"/>
      <point x="225" y="620" type="line"/>
      <point x="248" y="730" type="line"/>
      <point x="160" y="730" type="line"/>
    </contour>
    <contour>
      <point x="129" y="-186" type="curve" smooth="yes"/>
      <point x="212" y="-186"/>
      <point x="300" y="-116"/>
      <point x="321" y="-17" type="curve" smooth="yes"/>
      <point x="436" y="522" type="line"/>
      <point x="348" y="522" type="line"/>
      <point x="232" y="-23" type="line" smooth="yes"/>
      <point x="222" y="-72"/>
      <point x="176" y="-108"/>
      <point x="136" y="-108" type="curve" smooth="yes"/>
      <point x="113" y="-108"/>
      <point x="90" y="-102"/>
      <point x="76" y="-85" type="curve"/>
      <point x="23" y="-144" type="line"/>
      <point x="48" y="-173"/>
      <point x="85" y="-186"/>
    </contour>
    <contour>
      <point x="368" y="620" type="line"/>
      <point x="456" y="620" type="line"/>
      <point x="480" y="730" type="line"/>
      <point x="392" y="730" type="line"/>
    </contour>
  </outline>
</glyph>
<glyph name="Jcircumflex" format="1">
  <advance width="472"/>
  <unicode hex="0134"/>
  <outline>
    <contour>
      <point x="376" y="802" type="line"/>
      <point x="470" y="865" type="line"/>
      <point x="537" y="802" type="line"/>
      <point x="590" y="826" type="line"/>
      <point x="513" y="916" type="line"/>
      <point x="449" y="916" type="line"/>
      <point x="333" y="826" type="line"/>
    </contour>
    <contour>
      <point x="98" y="-11" type="curve" smooth="yes"/>
      <point x="304" y="-11"/>
      <point x="360" y="133"/>
      <point x="406" y="349" type="curve" smooth="yes"/>
      <point x="483" y="709" type="line"/>
      <point x="393" y="709" type="line"/>
      <point x="316" y="349" type="line" smooth="yes"/>
      <point x="277" y="168"/>
      <point x="241" y="70"/>
      <point x="115" y="70" type="curve" smooth="yes"/>
      <point x="61" y="70"/>
      <point x="19" y="88"/>
      <point x="-1" y="106" type="curve"/>
      <point x="-39" y="33" type="line"/>
      <point x="-5" y="4"/>
      <point x="40" y="-11"/>
    </contour>
  </outline>
</glyph>
<glyph name="Kcommaaccent" format="1">
  <advance width="625"/>
  <unicode hex="0136"/>
  <outline>
    <contour>
      <point x="241" y="-213" type="line"/>
      <point x="287" y="-132" type="line"/>
      <point x="305" y="-48" type="line"/>
      <point x="228" y="-48" type="line"/>
      <point x="210" y="-132" type="line"/>
      <point x="235" y="-132" type="line"/>
      <point x="198" y="-213" type="line"/>
    </contour>
    <contour>
      <point x="20" y="0" type="line"/>
      <point x="110" y="0" type="line"/>
      <point x="156" y="217" type="line"/>
      <point x="297" y="345" type="line"/>
      <point x="465" y="0" type="line"/>
      <point x="564" y="0" type="line"/>
      <point x="364" y="397" type="line"/>
      <point x="700" y="710" type="line"/>
      <point x="602" y="710" type="line"/>
      <point x="177" y="317" type="line"/>
      <point x="261" y="709" type="line"/>
      <point x="171" y="709" type="line"/>
    </contour>
  </outline>
</glyph>
<glyph name="lcaron" format="1">
  <advance width="271"/>
  <unicode hex="013E"/>
  <outline>
    <contour>
      <point x="339" y="609" type="line"/>
      <point x="448" y="730" type="line"/>
      <point x="361" y="730" type="line"/>
      <point x="285" y="629" type="line"/>
    </contour>
    <contour>
      <point x="112" y="-7" type="curve" smooth="yes"/>
      <point x="142" y="-7"/>
      <point x="188" y="2"/>
      <point x="218" y="14" type="curve"/>
      <point x="221" y="85" type="line"/>
      <point x="203" y="78"/>
      <point x="180" y="73"/>
      <point x="166" y="73" type="curve" smooth="yes"/>
      <point x="137" y="73"/>
      <point x="121" y="89"/>
      <point x="121" y="116" type="curve" smooth="yes"/>
      <point x="121" y="122"/>
      <point x="122" y="128"/>
      <point x="123" y="135" type="curve" smooth="yes"/>
      <point x="249" y="730" type="line"/>
      <point x="162" y="730" type="line"/>
      <point x="29" y="103" type="line" smooth="yes"/>
      <point x="27" y="92"/>
      <point x="25" y="81"/>
      <point x="25" y="71" type="curve" smooth="yes"/>
      <point x="25" y="22"/>
      <point x="57" y="-7"/>
    </contour>
  </outline>
</glyph>
<glyph name="ncommaaccent" format="1">
  <advance width="567"/>
  <unicode hex="0146"/>
  <outline>
    <contour>
      <point x="180" y="-213" type="line"/>
      <point x="226" y="-132" type="line"/>
      <point x="244" y="-48" type="line"/>
      <point x="167" y="-48" type="line"/>
      <point x="149" y="-132" type="line"/>
      <point x="174" y="-132" type="line"/>
      <point x="137" y="-213" type="line"/>
    </contour>
    <contour>
      <point x="5" y="0" type="line"/>
      <point x="93" y="0" type="line"/>
      <point x="160" y="315" type="line"/>
      <point x="199" y="394"/>
      <point x="284" y="452"/>
      <point x="351" y="452" type="curve" smooth="yes"/>
      <point x="398" y="452"/>
      <point x="422" y="425"/>
      <point x="422" y="367" type="curve" smooth="yes"/>
      <point x="422" y="346"/>
      <point x="419" y="321"/>
      <point x="413" y="292" type="curve" smooth="yes"/>
      <point x="351" y="0" type="line"/>
      <point x="439" y="0" type="line"/>
      <point x="505" y="312" type="line" smooth="yes"/>
      <point x="512" y="347"/>
      <point x="517" y="379"/>
      <point x="517" y="408" type="curve" smooth="yes"/>
      <point x="517" y="482"/>
      <point x="487" y="531"/>
      <point x="403" y="531" type="curve" smooth="yes"/>
      <point x="316" y="531"/>
      <point x="226" y="483"/>
      <point x="172" y="410" type="curve"/>
      <point x="196" y="522" type="line"/>
      <point x="116" y="522" type="line"/>
    </contour>
  </outline>
</glyph>
<glyph name="Ncaron" format="1">
  <advance width="739"/>
  <unicode hex="0147"/>
  <outline>
    <contour>
      <point x="435" y="802" type="line"/>
      <point x="499" y="802" type="line"/>
      <point x="615" y="892" type="line"/>
      <point x="572" y="916" type="line"/>
      <point x="478" y="853" type="line"/>
      <point x="411" y="916" type="line"/>
      <point x="358" y="892" type="line"/>
    </contour>
    <contour>
      <point x="20" y="0" type="line"/>
      <point x="110" y="0" type="line"/>
      <point x="225" y="542" type="line"/>
      <point x="516" y="0" type="line"/>
      <point x="591" y="0" type="line"/>
      <point x="742" y="709" type="line"/>
      <point x="652" y="709" type="line"/>
      <point x="535" y="157" type="line"/>
      <point x="241" y="710" type="line"/>
      <point x="171" y="710" type="line"/>
    </contour>
  </outline>
</glyph>
<glyph name="Ohungarumlaut" format="1">
  <advance width="721"/>
  <unicode hex="0150"/>
  <outline>
    <contour>
      <point x="514" y="917" type="line"/>
      <point x="439" y="917" type="line"/>
      <point x="367" y="816" type="line"/>
      <point x="408" y="796" type="line"/>
    </contour>
    <contour>
      <point x="646" y="917" type="line"/>
      <point x="571" y="917" type="line"/>
      <point x="499" y="816" type="line"/>
      <point x="540" y="796" type="line"/>
    </contour>
    <contour>
      <point x="295" y="-5" type="curve" smooth="yes"/>
      <point x="504" y="-5"/>
      <point x="699" y="205"/>
      <point x="699" y="420" type="curve" smooth="yes"/>
      <point x="699" y="571"/>
      <point x="611" y="715"/>
      <point x="450" y="715" type="curve" smooth="yes"/>
      <point x="241" y="715"/>
      <point x="44" y="505"/>
      <point x="44" y="288" type="curve" smooth="yes"/>
      <point x="44" y="135"/>
      <point x="134" y="-5"/>
    </contour>
    <contour>
      <point x="313" y="76" type="curve" smooth="yes"/>
      <point x="198" y="76"/>
      <point x="136" y="178"/>
      <point x="136" y="296" type="curve" smooth="yes"/>
      <point x="136" y="456"/>
      <point x="267" y="633"/>
      <point x="431" y="633" type="curve" smooth="yes"/>
      <point x="544" y="633"/>
      <point x="607" y="531"/>
      <point x="607" y="413" type="curve" smooth="yes"/>
      <point x="607" y="255"/>
      <point x="477" y="76"/>
    </contour>
  </outline>
</glyph>
<glyph name="rcommaaccent" format="1">
  <advance width="354"/>
  <unicode hex="0157"/>
  <outline>
    <contour>
      <point x="8" y="-213" type="line"/>
      <point x="54" y="-132" type="line"/>
      <point x="72" y="-48" type="line"/>
      <point x="-5" y="-48" type="line"/>
      <point x="-23" y="-132" type="line"/>
      <point x="2" y="-132" type="line"/>
      <point x="-35" y="-213" type="line"/>
    </contour>
    <contour>
      <point x="5" y="0" type="line"/>
      <point x="93" y="0" type="line"/>
      <point x="161" y="322" type="line"/>
      <point x="204" y="398"/>
      <point x="282" y="443"/>
      <point x="365" y="445" type="curve"/>
      <point x="381" y="521" type="line"/>
      <point x="375" y="522"/>
      <point x="367" y="523"/>
      <point x="355" y="523" type="curve" smooth="yes"/>
      <point x="291" y="523"/>
      <point x="222" y="473"/>
      <point x="172" y="401" type="curve"/>
      <point x="198" y="522" type="line"/>
      <point x="116" y="522" type="line"/>
    </contour>
  </outline>
</glyph>
<glyph name="rcaron" format="1">
  <advance width="354"/>
  <unicode hex="0159"/>
  <outline>
    <contour>
      <point x="223" y="616" type="line"/>
      <point x="287" y="616" type="line"/>
      <point x="403" y="706" type="line"/>
      <point x="360" y="730" type="line"/>
      <point x="266" y="667" type="line"/>
      <point x="199" y="730" type="line"/>
      <point x="146" y="706" type="line"/>
    </contour>
    <contour>
      <point x="5" y="0" type="line"/>
      <point x="93" y="0" type="line"/>
      <point x="161" y="322" type="line"/>
      <point x="204" y="398"/>
      <point x="282" y="443"/>
      <point x="365" y="445" type="curve"/>
      <point x="381" y="521" type="line"/>
      <point x="375" y="522"/>
      <point x="367" y="523"/>
      <point x="355" y="523" type="curve" smooth="yes"/>
      <point x="291" y="523"/>
      <point x="222" y="473"/>
      <point x="172" y="401" type="curve"/>
      <point x="198" y="522" type="line"/>
      <point x="116" y="522" type="line"/>
    </contour>
  </outline>
</glyph>
<glyph name="uni015F" format="1">
  <advance width="475"/>
  <unicode hex="015F"/>
  <outline>
    <contour>
      <point x="51" y="-163" type="line"/>
      <point x="74" y="-173"/>
      <point x="105" y="-182"/>
      <point x="143" y="-182" type="curve" smooth="yes"/>
      <point x="224" y="-182"/>
      <point x="267" y="-146"/>
      <point x="267" y="-94" type="curve" smooth="yes"/>
      <point x="267" y="-60"/>
      <point x="242" y="-43"/>
      <point x="204" y="-43" type="curve" smooth="yes"/>
      <point x="194" y="-43"/>
      <point x="180" y="-44"/>
      <point x="169" y="-48" type="curve"/>
      <point x="200" y="-9" type="line"/>
      <point x="325" y="-1"/>
      <point x="413" y="72"/>
      <point x="413" y="174" type="curve" smooth="yes"/>
      <point x="413" y="243"/>
      <point x="356" y="270"/>
      <point x="246" y="299" type="curve" smooth="yes"/>
      <point x="177" y="317"/>
      <point x="147" y="330"/>
      <point x="147" y="367" type="curve" smooth="yes"/>
      <point x="147" y="435"/>
      <point x="205" y="467"/>
      <point x="273" y="467" type="curve" smooth="yes"/>
      <point x="326" y="467"/>
      <point x="376" y="448"/>
      <point x="410" y="409" type="curve"/>
      <point x="461" y="462" type="line"/>
      <point x="424" y="503"/>
      <point x="363" y="531"/>
      <point x="289" y="531" type="curve" smooth="yes"/>
      <point x="168" y="531"/>
      <point x="60" y="461"/>
      <point x="60" y="344" type="curve" smooth="yes"/>
      <point x="60" y="282"/>
      <point x="107" y="259"/>
      <point x="205" y="232" type="curve" smooth="yes"/>
      <point x="284" y="211"/>
      <point x="324" y="196"/>
      <point x="324" y="154" type="curve" smooth="yes"/>
      <point x="324" y="94"/>
      <point x="269" y="55"/>
      <point x="190" y="55" type="curve" smooth="yes"/>
      <point x="127" y="55"/>
      <point x="74" y="79"/>
      <point x="26" y="125" type="curve"/>
      <point x="-24" y="66" type="line"/>
      <point x="17" y="21"/>
      <point x="85" y="-4"/>
      <point x="156" y="-9" type="curve"/>
      <point x="100" y="-88" type="line"/>
      <point x="117" y="-83"/>
      <point x="152" y="-75"/>
      <point x="179" y="-75" type="curve" smooth="yes"/>
      <point x="204" y="-75"/>
      <point x="221" y="-82"/>
      <point x="221" y="-103" type="curve" smooth="yes"/>
      <point x="221" y="-132"/>
      <point x="197" y="-145"/>
      <point x="158" y="-145" type="curve" smooth="yes"/>
      <point x="125" y="-145"/>
      <point x="93" y="-135"/>
      <point x="79" y="-126" type="curve"/>
    </contour>
  </outline>
</glyph>
<glyph name="uni0163" format="1">
  <advance width="338"/>
  <unicode hex="0163"/>
  <outline>
    <contour>
      <point x="14" y="-163" type="line"/>
      <point x="37" y="-173"/>
      <point x="68" y="-182"/>
      <point x="106" y="-182" type="curve" smooth="yes"/>
      <point x="187" y="-182"/>
      <point x="230" y="-146"/>
      <point x="230" y="-94" type="curve" smooth="yes"/>
      <point x="230" y="-60"/>
      <point x="205" y="-43"/>
      <point x="167" y="-43" type="curve" smooth="yes"/>
      <point x="157" y="-43"/>
      <point x="143" y="-44"/>
      <point x="132" y="-48" type="curve"/>
      <point x="166" y="-6" type="line"/>
      <point x="210" y="-2"/>
      <point x="250" y="11"/>
      <point x="271" y="26" type="curve"/>
      <point x="266" y="96" type="line"/>
      <point x="254" y="90"/>
      <point x="221" y="74"/>
      <point x="188" y="74" type="curve" smooth="yes"/>
      <point x="163" y="74"/>
      <point x="143" y="86"/>
      <point x="143" y="114" type="curve" smooth="yes"/>
      <point x="143" y="119"/>
      <point x="144" y="124"/>
      <point x="145" y="129" type="curve" smooth="yes"/>
      <point x="214" y="453" type="line"/>
      <point x="324" y="453" type="line"/>
      <point x="339" y="522" type="line"/>
      <point x="228" y="522" type="line"/>
      <point x="265" y="696" type="line"/>
      <point x="177" y="696" type="line"/>
      <point x="140" y="522" type="line"/>
      <point x="73" y="522" type="line"/>
      <point x="58" y="453" type="line"/>
      <point x="126" y="453" type="line"/>
      <point x="51" y="102" type="line" smooth="yes"/>
      <point x="49" y="92"/>
      <point x="48" y="82"/>
      <point x="48" y="73" type="curve" smooth="yes"/>
      <point x="48" y="25"/>
      <point x="78" y="0"/>
      <point x="121" y="-6" type="curve"/>
      <point x="63" y="-88" type="line"/>
      <point x="80" y="-83"/>
      <point x="115" y="-75"/>
      <point x="142" y="-75" type="curve" smooth="yes"/>
      <point x="167" y="-75"/>
      <point x="184" y="-82"/>
      <point x="184" y="-103" type="curve" smooth="yes"/>
      <point x="184" y="-132"/>
      <point x="160" y="-145"/>
      <point x="121" y="-145" type="curve" smooth="yes"/>
      <point x="88" y="-145"/>
      <point x="56" y="-135"/>
      <point x="42" y="-126" type="curve"/>
    </contour>
  </outline>
</glyph>
<glyph name="Tcaron" format="1">
  <advance width="586"/>
  <unicode hex="0164"/>
  <outline>
    <contour>
      <point x="361" y="802" type="line"/>
      <point x="425" y="802" type="line"/>
      <point x="541" y="892" type="line"/>
      <point x="498" y="916" type="line"/>
      <point x="404" y="853" type="line"/>
      <point x="337" y="916" type="line"/>
      <point x="284" y="892" type="line"/>
    </contour>
    <contour>
      <point x="183" y="0" type="line"/>
      <point x="273" y="0" type="line"/>
      <point x="407" y="630" type="line"/>
      <point x="638" y="630" type="line"/>
      <point x="655" y="710" type="line"/>
      <point x="103" y="710" type="line"/>
      <point x="86" y="630" type="line"/>
      <point x="317" y="630" type="line"/>
    </contour>
  </outline>
</glyph>
<glyph name="tbar" format="1">
  <advance width="338"/>
  <unicode hex="0167"/>
  <outline>
    <contour>
      <point x="25" y="294" type="line"/>
      <point x="92" y="294" type="line"/>
      <point x="51" y="102" type="line" smooth="yes"/>
      <point x="49" y="92"/>
      <point x="48" y="82"/>
      <point x="48" y="73" type="curve" smooth="yes"/>
      <point x="48" y="18"/>
      <point x="88" y="-7"/>
      <point x="142" y="-7" type="curve" smooth="yes"/>
      <point x="195" y="-7"/>
      <point x="247" y="9"/>
      <point x="272" y="26" type="curve"/>
      <point x="266" y="96" type="line"/>
      <point x="255" y="90"/>
      <point x="221" y="74"/>
      <point x="189" y="74" type="curve" smooth="yes"/>
      <point x="163" y="74"/>
      <point x="144" y="87"/>
      <point x="144" y="117" type="curve" smooth="yes"/>
      <point x="144" y="123"/>
      <point x="145" y="131"/>
      <point x="148" y="145" type="curve" smooth="yes"/>
      <point x="180" y="294" type="line"/>
      <point x="291" y="294" type="line"/>
      <point x="303" y="350" type="line"/>
      <point x="192" y="350" type="line"/>
      <point x="214" y="453" type="line"/>
      <point x="325" y="453" type="line"/>
      <point x="339" y="522" type="line"/>
      <point x="229" y="522" type="line"/>
      <point x="266" y="696" type="line"/>
      <point x="178" y="696" type="line"/>
      <point x="141" y="522" type="line"/>
      <point x="73" y="522" type="line"/>
      <point x="59" y="453" type="line"/>
      <point x="126" y="453" type="line"/>
      <point x="104" y="350" type="line"/>
      <point x="37" y="350" type="line"/>
    </contour>
  </outline>
</glyph>
<glyph name="Ubreve" format="1">
  <advance width="724"/>
  <unicode hex="016C"/>
  <outline>
    <contour>
      <point x="298" y="-5" type="curve" smooth="yes"/>
      <point x="505" y="-5"/>
      <point x="620" y="159"/>
      <point x="661" y="351" type="curve" smooth="yes"/>
      <point x="737" y="710" type="line"/>
      <point x="647" y="710" type="line"/>
      <point x="571" y="351" type="line" smooth="yes"/>
      <point x="542" y="215"/>
      <point x="468" y="76"/>
      <point x="314" y="76" type="curve" smooth="yes"/>
      <point x="201" y="76"/>
      <point x="163" y="151"/>
      <point x="163" y="247" type="curve" smooth="yes"/>
      <point x="163" y="280"/>
      <point x="167" y="315"/>
      <point x="175" y="351" type="curve" smooth="yes"/>
      <point x="251" y="710" type="line"/>
      <point x="161" y="710" type="line"/>
      <point x="85" y="351" type="line" smooth="yes"/>
      <point x="76" y="310"/>
      <point x="71" y="270"/>
      <point x="71" y="232" type="curve" smooth="yes"/>
      <point x="71" y="100"/>
      <point x="131" y="-5"/>
    </contour>
    <contour>
      <point x="465" y="848" type="curve" smooth="yes"/>
      <point x="440" y="848"/>
      <point x="423" y="871"/>
      <point x="423" y="899" type="curve" smooth="yes"/>
      <point x="423" y="905"/>
      <point x="424" y="910"/>
      <point x="425" y="916" type="curve"/>
      <point x="374" y="916" type="line"/>
      <point x="372" y="907"/>
      <point x="371" y="899"/>
      <point x="371" y="890" type="curve" smooth="yes"/>
      <point x="371" y="840"/>
      <point x="404" y="805"/>
      <point x="456" y="805" type="curve" smooth="yes"/>
      <point x="515" y="805"/>
      <point x="571" y="853"/>
      <point x="584" y="916" type="curve"/>
      <point x="534" y="916" type="line"/>
      <point x="522" y="877"/>
      <point x="492" y="848"/>
    </contour>
  </outline>
</glyph>
<glyph name="Uring" format="1">
  <advance width="724"/>
  <unicode hex="016E"/>
  <outline>
    <contour>
      <point x="394" y="834" type="curve" smooth="yes"/>
      <point x="394" y="800"/>
      <point x="419" y="778"/>
      <point x="459" y="778" type="curve" smooth="yes"/>
      <point x="513" y="778"/>
      <point x="554" y="812"/>
      <point x="554" y="860" type="curve" smooth="yes"/>
      <point x="554" y="894"/>
      <point x="530" y="916"/>
      <point x="489" y="916" type="curve" smooth="yes"/>
      <point x="437" y="916"/>
      <point x="394" y="883"/>
    </contour>
    <contour>
      <point x="482" y="885" type="curve" smooth="yes"/>
      <point x="501" y="885"/>
      <point x="514" y="873"/>
      <point x="514" y="854" type="curve" smooth="yes"/>
      <point x="514" y="828"/>
      <point x="488" y="809"/>
      <point x="466" y="809" type="curve" smooth="yes"/>
      <point x="447" y="809"/>
      <point x="435" y="823"/>
      <point x="435" y="840" type="curve" smooth="yes"/>
      <point x="435" y="866"/>
      <point x="458" y="885"/>
    </contour>
    <contour>
      <point x="298" y="-5" type="curve" smooth="yes"/>
      <point x="505" y="-5"/>
      <point x="620" y="159"/>
      <point x="661" y="351" type="curve" smooth="yes"/>
      <point x="737" y="710" type="line"/>
      <point x="647" y="710" type="line"/>
      <point x="571" y="351" type="line" smooth="yes"/>
      <point x="542" y="215"/>
      <point x="468" y="76"/>
      <point x="314" y="76" type="curve" smooth="yes"/>
      <point x="201" y="76"/>
      <point x="163" y="151"/>
      <point x="163" y="247" type="curve" smooth="yes"/>
      <point x="163" y="280"/>
      <point x="167" y="315"/>
      <point x="175" y="351" type="curve" smooth="yes"/>
      <point x="251" y="710" type="line"/>
      <point x="161" y="710" type="line"/>
      <point x="85" y="351" type="line" smooth="yes"/>
      <point x="76" y="310"/>
      <point x="71" y="270"/>
      <point x="71" y="232" type="curve" smooth="yes"/>
      <point x="71" y="100"/>
      <point x="131" y="-5"/>
    </contour>
  </outline>
</glyph>
<glyph name="uring" format="1">
  <advance width="577"/>
  <unicode hex="016F"/>
  <outline>
    <contour>
      <point x="267" y="648" type="curve" smooth="yes"/>
      <point x="267" y="614"/>
      <point x="292" y="592"/>
      <point x="332" y="592" type="curve" smooth="yes"/>
      <point x="386" y="592"/>
      <point x="427" y="626"/>
      <point x="427" y="674" type="curve" smooth="yes"/>
      <point x="427" y="708"/>
      <point x="403" y="730"/>
      <point x="362" y="730" type="curve" smooth="yes"/>
      <point x="310" y="730"/>
      <point x="267" y="697"/>
    </contour>
    <contour>
      <point x="355" y="699" type="curve" smooth="yes"/>
      <point x="374" y="699"/>
      <point x="387" y="687"/>
      <point x="387" y="668" type="curve" smooth="yes"/>
      <point x="387" y="642"/>
      <point x="361" y="623"/>
      <point x="339" y="623" type="curve" smooth="yes"/>
      <point x="320" y="623"/>
      <point x="308" y="637"/>
      <point x="308" y="654" type="curve" smooth="yes"/>
      <point x="308" y="680"/>
      <point x="331" y="699"/>
    </contour>
    <contour>
      <point x="155" y="-10" type="curve" smooth="yes"/>
      <point x="240" y="-10"/>
      <point x="326" y="34"/>
      <point x="386" y="112" type="curve"/>
      <point x="377" y="69"/>
      <point x="375" y="52"/>
      <point x="375" y="40" type="curve" smooth="yes"/>
      <point x="375" y="13"/>
      <point x="394" y="-4"/>
      <point x="430" y="-4" type="curve" smooth="yes"/>
      <point x="439" y="-4"/>
      <point x="450" y="-2"/>
      <point x="465" y="0" type="curve"/>
      <point x="481" y="76" type="line"/>
      <point x="466" y="77"/>
      <point x="459" y="82"/>
      <point x="459" y="95" type="curve" smooth="yes"/>
      <point x="459" y="99"/>
      <point x="460" y="103"/>
      <point x="461" y="108" type="curve" smooth="yes"/>
      <point x="549" y="522" type="line"/>
      <point x="461" y="522" type="line"/>
      <point x="392" y="195" type="line"/>
      <point x="345" y="115"/>
      <point x="271" y="66"/>
      <point x="204" y="66" type="curve" smooth="yes"/>
      <point x="153" y="66"/>
      <point x="126" y="96"/>
      <point x="126" y="157" type="curve" smooth="yes"/>
      <point x="126" y="176"/>
      <point x="129" y="199"/>
      <point x="135" y="226" type="curve" smooth="yes"/>
      <point x="198" y="522" type="line"/>
      <point x="111" y="522" type="line"/>
      <point x="44" y="209" type="line" smooth="yes"/>
      <point x="37" y="176"/>
      <point x="33" y="147"/>
      <point x="33" y="122" type="curve" smooth="yes"/>
      <point x="33" y="35"/>
      <point x="74" y="-10"/>
    </contour>
  </outline>
</glyph>
<glyph name="Uhungarumlaut" format="1">
  <advance width="724"/>
  <unicode hex="0170"/>
  <outline>
    <contour>
      <point x="298" y="-5" type="curve" smooth="yes"/>
      <point x="505" y="-5"/>
      <point x="620" y="159"/>
      <point x="661" y="351" type="curve" smooth="yes"/>
      <point x="737" y="710" type="line"/>
      <point x="647" y="710" type="line"/>
      <point x="571" y="351" type="line" smooth="yes"/>
      <point x="542" y="215"/>
      <point x="468" y="76"/>
      <point x="314" y="76" type="curve" smooth="yes"/>
      <point x="201" y="76"/>
      <point x="163" y="151"/>
      <point x="163" y="247" type="curve" smooth="yes"/>
      <point x="163" y="280"/>
      <point x="167" y="315"/>
      <point x="175" y="351" type="curve" smooth="yes"/>
      <point x="251" y="710" type="line"/>
      <point x="161" y="710" type="line"/>
      <point x="85" y="351" type="line" smooth="yes"/>
      <point x="76" y="310"/>
      <point x="71" y="270"/>
      <point x="71" y="232" type="curve" smooth="yes"/>
      <point x="71" y="100"/>
      <point x="131" y="-5"/>
    </contour>
    <contour>
      <point x="491" y="917" type="line"/>
      <point x="416" y="917" type="line"/>
      <point x="344" y="816" type="line"/>
      <point x="385" y="796" type="line"/>
    </contour>
    <contour>
      <point x="623" y="917" type="line"/>
      <point x="548" y="917" type="line"/>
      <point x="476" y="816" type="line"/>
      <point x="517" y="796" type="line"/>
    </contour>
  </outline>
</glyph>
<glyph name="Ydieresis" format="1">
  <advance width="612"/>
  <unicode hex="0178"/>
  <outline>
    <contour>
      <point x="192" y="0" type="line"/>
      <point x="282" y="0" type="line"/>
      <point x="337" y="259" type="line"/>
      <point x="689" y="710" type="line"/>
      <point x="591" y="710" type="line"/>
      <point x="310" y="340" type="line"/>
      <point x="188" y="710" type="line"/>
      <point x="89" y="710" type="line"/>
      <point x="248" y="261" type="line"/>
    </contour>
    <contour>
      <point x="365" y="811" type="line"/>
      <point x="387" y="913" type="line"/>
      <point x="313" y="913" type="line"/>
      <point x="291" y="811" type="line"/>
    </contour>
    <contour>
      <point x="522" y="811" type="line"/>
      <point x="543" y="913" type="line"/>
      <point x="470" y="913" type="line"/>
      <point x="448" y="811" type="line"/>
    </contour>
  </outline>
</glyph>
<glyph name="Zcaron" format="1">
  <advance width="600"/>
  <unicode hex="017D"/>
  <outline>
    <contour>
      <point x="362" y="802" type="line"/>
      <point x="426" y="802" type="line"/>
      <point x="542" y="892" type="line"/>
      <point x="499" y="916" type="line"/>
      <point x="405" y="853" type="line"/>
      <point x="338" y="916" type="line"/>
      <point x="285" y="892" type="line"/>
    </contour>
    <contour>
      <point x="-34" y="0" type="line"/>
      <point x="501" y="0" type="line"/>
      <point x="518" y="80" type="line"/>
      <point x="96" y="80" type="line"/>
      <point x="637" y="640" type="line"/>
      <point x="652" y="710" type="line"/>
      <point x="126" y="710" type="line"/>
      <point x="109" y="630" type="line"/>
      <point x="530" y="630" type="line"/>
      <point x="-19" y="70" type="line"/>
    </contour>
  </outline>
</glyph>
<glyph name="uni01C7" format="1">
  <advance width="1031"/>
  <unicode hex="01C7"/>
  <outline>
    <contour>
      <point x="20" y="0" type="line"/>
      <point x="483" y="0" type="line"/>
      <point x="500" y="80" type="line"/>
      <point x="127" y="80" type="line"/>
      <point x="261" y="710" type="line"/>
      <point x="171" y="710" type="line"/>
    </contour>
    <contour>
      <point x="657" y="-11" type="curve" smooth="yes"/>
      <point x="863" y="-11"/>
      <point x="919" y="133"/>
      <point x="965" y="349" type="curve" smooth="yes"/>
      <point x="1042" y="709" type="line"/>
      <point x="952" y="709" type="line"/>
      <point x="875" y="349" type="line" smooth="yes"/>
      <point x="836" y="168"/>
      <point x="800" y="70"/>
      <point x="674" y="70" type="curve" smooth="yes"/>
      <point x="620" y="70"/>
      <point x="578" y="88"/>
      <point x="558" y="106" type="curve"/>
      <point x="520" y="33" type="line"/>
      <point x="554" y="4"/>
      <point x="599" y="-11"/>
    </contour>
  </outline>
</glyph>
<glyph name="uni01C9" format="1">
  <advance width="512"/>
  <unicode hex="01C9"/>
  <outline>
    <contour>
      <point x="112" y="-7" type="curve" smooth="yes"/>
      <point x="142" y="-7"/>
      <point x="188" y="2"/>
      <point x="218" y="14" type="curve"/>
      <point x="221" y="85" type="line"/>
      <point x="203" y="78"/>
      <point x="180" y="73"/>
      <point x="166" y="73" type="curve" smooth="yes"/>
      <point x="137" y="73"/>
      <point x="121" y="89"/>
      <point x="121" y="116" type="curve" smooth="yes"/>
      <point x="121" y="122"/>
      <point x="122" y="128"/>
      <point x="123" y="135" type="curve" smooth="yes"/>
      <point x="249" y="730" type="line"/>
      <point x="162" y="730" type="line"/>
      <point x="29" y="103" type="line" smooth="yes"/>
      <point x="27" y="92"/>
      <point x="25" y="81"/>
      <point x="25" y="71" type="curve" smooth="yes"/>
      <point x="25" y="22"/>
      <point x="57" y="-7"/>
    </contour>
    <contour>
      <point x="183" y="-186" type="curve" smooth="yes"/>
      <point x="266" y="-186"/>
      <point x="354" y="-116"/>
      <point x="375" y="-17" type="curve" smooth="yes"/>
      <point x="490" y="522" type="line"/>
      <point x="402" y="522" type="line"/>
      <point x="286" y="-23" type="line" smooth="yes"/>
      <point x="276" y="-72"/>
      <point x="230" y="-108"/>
      <point x="190" y="-108" type="curve" smooth="yes"/>
      <point x="167" y="-108"/>
      <point x="144" y="-102"/>
      <point x="130" y="-85" type="curve"/>
      <point x="77" y="-144" type="line"/>
      <point x="102" y="-173"/>
      <point x="139" y="-186"/>
    </contour>
    <contour>
      <point x="422" y="620" type="line"/>
      <point x="510" y="620" type="line"/>
      <point x="534" y="730" type="line"/>
      <point x="446" y="730" type="line"/>
    </contour>
  </outline>
</glyph>
<glyph name="oogonek" format="1">
  <advance width="578"/>
  <unicode hex="01EB"/>
  <outline>
    <contour>
      <point x="187" y="-186" type="curve"/>
      <point x="218" y="-140" type="line"/>
      <point x="188" y="-137"/>
      <point x="173" y="-124"/>
      <point x="173" y="-104" type="curve" smooth="yes"/>
      <point x="173" y="-74"/>
      <point x="199" y="-46"/>
      <point x="269" y="-6" type="curve"/>
      <point x="420" y="19"/>
      <point x="539" y="161"/>
      <point x="539" y="312" type="curve" smooth="yes"/>
      <point x="539" y="432"/>
      <point x="465" y="531"/>
      <point x="337" y="531" type="curve" smooth="yes"/>
      <point x="166" y="531"/>
      <point x="22" y="375"/>
      <point x="22" y="208" type="curve" smooth="yes"/>
      <point x="22" y="93"/>
      <point x="89" y="-3"/>
      <point x="209" y="-10" type="curve"/>
      <point x="147" y="-48"/>
      <point x="119" y="-84"/>
      <point x="119" y="-121" type="curve" smooth="yes"/>
      <point x="119" y="-152"/>
      <point x="142" y="-177"/>
    </contour>
    <contour>
      <point x="239" y="66" type="curve" smooth="yes"/>
      <point x="163" y="66"/>
      <point x="113" y="131"/>
      <point x="113" y="219" type="curve" smooth="yes"/>
      <point x="113" y="345"/>
      <point x="219" y="455"/>
      <point x="321" y="455" type="curve" smooth="yes"/>
      <point x="397" y="455"/>
      <point x="447" y="388"/>
      <point x="447" y="301" type="curve" smooth="yes"/>
      <point x="447" y="174"/>
      <point x="342" y="66"/>
    </contour>
  </outline>
</glyph>
<glyph name="uni01F2" format="1">
  <advance width="1162"/>
  <unicode hex="01F2"/>
  <outline>
    <contour>
      <point x="20" y="0" type="line"/>
      <point x="255" y="0" type="line"/>
      <point x="492" y="0"/>
      <point x="668" y="186"/>
      <point x="668" y="437" type="curve" smooth="yes"/>
      <point x="668" y="590"/>
      <point x="585" y="710"/>
      <point x="406" y="710" type="curve" smooth="yes"/>
      <point x="171" y="710" type="line"/>
    </contour>
    <contour>
      <point x="127" y="80" type="line"/>
      <point x="244" y="630" type="line"/>
      <point x="389" y="630" type="line" smooth="yes"/>
      <point x="512" y="630"/>
      <point x="575" y="544"/>
      <point x="575" y="423" type="curve" smooth="yes"/>
      <point x="575" y="242"/>
      <point x="458" y="80"/>
      <point x="272" y="80" type="curve" smooth="yes"/>
    </contour>
    <contour>
      <point x="657" y="0" type="line"/>
      <point x="1065" y="0" type="line"/>
      <point x="1079" y="64" type="line"/>
      <point x="771" y="64" type="line"/>
      <point x="1163" y="465" type="line"/>
      <point x="1175" y="522" type="line"/>
      <point x="777" y="522" type="line"/>
      <point x="763" y="458" type="line"/>
      <point x="1063" y="458" type="line"/>
      <point x="669" y="57" type="line"/>
    </contour>
  </outline>
</glyph>
<glyph name="Gacute" format="1">
  <advance width="686"/>
  <unicode hex="01F4"/>
  <outline>
    <contour>
      <point x="496" y="0" type="line"/>
      <point x="572" y="0" type="line"/>
      <point x="647" y="354" type="line"/>
      <point x="427" y="354" type="line"/>
      <point x="412" y="286" type="line"/>
      <point x="557" y="286" type="line"/>
      <point x="536" y="189" type="line"/>
      <point x="461" y="112"/>
      <point x="388" y="76"/>
      <point x="316" y="76" type="curve" smooth="yes"/>
      <point x="206" y="76"/>
      <point x="136" y="175"/>
      <point x="136" y="297" type="curve" smooth="yes"/>
      <point x="136" y="462"/>
      <point x="268" y="634"/>
      <point x="426" y="634" type="curve" smooth="yes"/>
      <point x="508" y="634"/>
      <point x="570" y="594"/>
      <point x="592" y="512" type="curve"/>
      <point x="671" y="560" type="line"/>
      <point x="646" y="652"/>
      <point x="575" y="715"/>
      <point x="445" y="715" type="curve" smooth="yes"/>
      <point x="238" y="715"/>
      <point x="45" y="508"/>
      <point x="45" y="292" type="curve" smooth="yes"/>
      <point x="45" y="137"/>
      <point x="139" y="-5"/>
      <point x="292" y="-5" type="curve" smooth="yes"/>
      <point x="369" y="-5"/>
      <point x="443" y="27"/>
      <point x="516" y="95" type="curve"/>
    </contour>
    <contour>
      <point x="563" y="916" type="line"/>
      <point x="476" y="916" type="line"/>
      <point x="400" y="815" type="line"/>
      <point x="454" y="795" type="line"/>
    </contour>
  </outline>
</glyph>
<glyph name="Aringacute" format="1">
  <advance width="652"/>
  <unicode hex="01FA"/>
  <outline>
    <contour>
      <point x="583" y="918" type="line"/>
      <point x="496" y="918" type="line"/>
      <point x="428" y="816" type="line"/>
      <point x="381" y="812"/>
      <point x="344" y="780"/>
      <point x="344" y="735" type="curve" smooth="yes"/>
      <point x="344" y="715"/>
      <point x="352" y="699"/>
      <point x="366" y="690" type="curve"/>
      <point x="-47" y="0" type="line"/>
      <point x="49" y="0" type="line"/>
      <point x="170" y="208" type="line"/>
      <point x="448" y="208" type="line"/>
      <point x="482" y="0" type="line"/>
      <point x="578" y="0" type="line"/>
      <point x="458" y="690" type="line"/>
      <point x="486" y="704"/>
      <point x="504" y="729"/>
      <point x="504" y="761" type="curve" smooth="yes"/>
      <point x="504" y="778"/>
      <point x="498" y="792"/>
      <point x="486" y="802" type="curve"/>
    </contour>
    <contour>
      <point x="202" y="278" type="line"/>
      <point x="395" y="606" type="line"/>
      <point x="444" y="278" type="line"/>
    </contour>
    <contour>
      <point x="432" y="786" type="curve" smooth="yes"/>
      <point x="451" y="786"/>
      <point x="464" y="774"/>
      <point x="464" y="755" type="curve" smooth="yes"/>
      <point x="464" y="729"/>
      <point x="438" y="710"/>
      <point x="416" y="710" type="curve" smooth="yes"/>
      <point x="397" y="710"/>
      <point x="385" y="724"/>
      <point x="385" y="741" type="curve" smooth="yes"/>
      <point x="385" y="767"/>
      <point x="408" y="786"/>
    </contour>
  </outline>
</glyph>
<glyph name="aeacute" format="1">
  <advance width="886"/>
  <unicode hex="01FD"/>
  <outline>
    <contour>
      <point x="623" y="730" type="line"/>
      <point x="536" y="730" type="line"/>
      <point x="460" y="629" type="line"/>
      <point x="514" y="609" type="line"/>
    </contour>
    <contour>
      <point x="131" y="-10" type="curve" smooth="yes"/>
      <point x="195" y="-10"/>
      <point x="300" y="21"/>
      <point x="361" y="103" type="curve"/>
      <point x="390" y="35"/>
      <point x="455" y="-10"/>
      <point x="545" y="-10" type="curve" smooth="yes"/>
      <point x="646" y="-10"/>
      <point x="742" y="45"/>
      <point x="791" y="122" type="curve"/>
      <point x="719" y="143" type="line"/>
      <point x="688" y="91"/>
      <point x="622" y="56"/>
      <point x="561" y="56" type="curve" smooth="yes"/>
      <point x="481" y="56"/>
      <point x="424" y="115"/>
      <point x="424" y="201" type="curve" smooth="yes"/>
      <point x="424" y="212"/>
      <point x="425" y="221"/>
      <point x="427" y="231" type="curve"/>
      <point x="844" y="231" type="line"/>
      <point x="847" y="239"/>
      <point x="859" y="261"/>
      <point x="859" y="311" type="curve" smooth="yes"/>
      <point x="859" y="434"/>
      <point x="786" y="531"/>
      <point x="659" y="531" type="curve" smooth="yes"/>
      <point x="579" y="531"/>
      <point x="506" y="493"/>
      <point x="452" y="436" type="curve"/>
      <point x="433" y="496"/>
      <point x="381" y="531"/>
      <point x="301" y="531" type="curve" smooth="yes"/>
      <point x="235" y="531"/>
      <point x="166" y="508"/>
      <point x="92" y="463" type="curve"/>
      <point x="108" y="406" type="line"/>
      <point x="172" y="446"/>
      <point x="228" y="467"/>
      <point x="278" y="467" type="curve" smooth="yes"/>
      <point x="346" y="467"/>
      <point x="383" y="429"/>
      <point x="383" y="381" type="curve" smooth="yes"/>
      <point x="383" y="349"/>
      <point x="366" y="328"/>
      <point x="356" y="294" type="curve"/>
      <point x="324" y="306"/>
      <point x="281" y="314"/>
      <point x="238" y="314" type="curve" smooth="yes"/>
      <point x="101" y="314"/>
      <point x="-8" y="235"/>
      <point x="-8" y="124" type="curve" smooth="yes"/>
      <point x="-8" y="48"/>
      <point x="44" y="-10"/>
    </contour>
    <contour>
      <point x="167" y="56" type="curve" smooth="yes"/>
      <point x="109" y="56"/>
      <point x="78" y="94"/>
      <point x="78" y="141" type="curve" smooth="yes"/>
      <point x="78" y="212"/>
      <point x="148" y="261"/>
      <point x="241" y="261" type="curve" smooth="yes"/>
      <point x="276" y="261"/>
      <point x="314" y="254"/>
      <point x="345" y="242" type="curve"/>
      <point x="342" y="227"/>
      <point x="340" y="206"/>
      <point x="340" y="188" type="curve" smooth="yes"/>
      <point x="340" y="175"/>
      <point x="341" y="164"/>
      <point x="343" y="155" type="curve"/>
      <point x="324" y="103"/>
      <point x="232" y="56"/>
    </contour>
    <contour>
      <point x="437" y="288" type="line"/>
      <point x="465" y="391"/>
      <point x="550" y="465"/>
      <point x="642" y="465" type="curve" smooth="yes"/>
      <point x="724" y="465"/>
      <point x="775" y="407"/>
      <point x="775" y="321" type="curve" smooth="yes"/>
      <point x="775" y="311"/>
      <point x="775" y="299"/>
      <point x="773" y="288" type="curve"/>
    </contour>
  </outline>
</glyph>
<glyph name="oslashacute" format="1">
  <advance width="578"/>
  <unicode hex="01FF"/>
  <outline>
    <contour>
      <point x="458" y="730" type="line"/>
      <point x="371" y="730" type="line"/>
      <point x="295" y="629" type="line"/>
      <point x="349" y="609" type="line"/>
    </contour>
    <contour>
      <point x="13" y="-2" type="line"/>
      <point x="67" y="-2" type="line"/>
      <point x="99" y="30" type="line"/>
      <point x="131" y="5"/>
      <point x="173" y="-10"/>
      <point x="223" y="-10" type="curve" smooth="yes"/>
      <point x="396" y="-10"/>
      <point x="539" y="146"/>
      <point x="539" y="312" type="curve" smooth="yes"/>
      <point x="539" y="371"/>
      <point x="521" y="425"/>
      <point x="487" y="465" type="curve"/>
      <point x="546" y="524" type="line"/>
      <point x="491" y="524" type="line"/>
      <point x="459" y="492" type="line"/>
      <point x="427" y="516"/>
      <point x="386" y="531"/>
      <point x="338" y="531" type="curve" smooth="yes"/>
      <point x="167" y="531"/>
      <point x="22" y="375"/>
      <point x="22" y="208" type="curve" smooth="yes"/>
      <point x="22" y="150"/>
      <point x="39" y="96"/>
      <point x="72" y="57" type="curve"/>
    </contour>
    <contour>
      <point x="239" y="66" type="curve" smooth="yes"/>
      <point x="208" y="66"/>
      <point x="181" y="76"/>
      <point x="160" y="95" type="curve"/>
      <point x="422" y="397" type="line"/>
      <point x="438" y="371"/>
      <point x="447" y="338"/>
      <point x="447" y="301" type="curve" smooth="yes"/>
      <point x="447" y="174"/>
      <point x="342" y="66"/>
    </contour>
    <contour>
      <point x="113" y="219" type="curve" smooth="yes"/>
      <point x="113" y="345"/>
      <point x="219" y="455"/>
      <point x="321" y="455" type="curve" smooth="yes"/>
      <point x="351" y="455"/>
      <point x="378" y="444"/>
      <point x="398" y="425" type="curve"/>
      <point x="138" y="123" type="line"/>
      <point x="122" y="149"/>
      <point x="113" y="182"/>
    </contour>
  </outline>
</glyph>
<glyph name="einvertedbreve" format="1">
  <advance width="539"/>
  <unicode hex="0207"/>
  <outline>
    <contour>
      <point x="228" y="-10" type="curve" smooth="yes"/>
      <point x="326" y="-10"/>
      <point x="423" y="45"/>
      <point x="472" y="122" type="curve"/>
      <point x="401" y="143" type="line"/>
      <point x="368" y="90"/>
      <point x="303" y="56"/>
      <point x="242" y="56" type="curve" smooth="yes"/>
      <point x="153" y="56"/>
      <point x="112" y="128"/>
      <point x="112" y="211" type="curve" smooth="yes"/>
      <point x="112" y="218"/>
      <point x="112" y="226"/>
      <point x="113" y="234" type="curve"/>
      <point x="156" y="230"/>
      <point x="196" y="229"/>
      <point x="228" y="229" type="curve" smooth="yes"/>
      <point x="421" y="229"/>
      <point x="513" y="284"/>
      <point x="513" y="390" type="curve" smooth="yes"/>
      <point x="513" y="483"/>
      <point x="443" y="531"/>
      <point x="341" y="531" type="curve" smooth="yes"/>
      <point x="160" y="531"/>
      <point x="23" y="378"/>
      <point x="23" y="210" type="curve" smooth="yes"/>
      <point x="23" y="87"/>
      <point x="97" y="-10"/>
    </contour>
    <contour>
      <point x="333" y="465" type="curve" smooth="yes"/>
      <point x="394" y="465"/>
      <point x="434" y="442"/>
      <point x="434" y="391" type="curve" smooth="yes"/>
      <point x="434" y="333"/>
      <point x="382" y="290"/>
      <point x="231" y="290" type="curve" smooth="yes"/>
      <point x="200" y="290"/>
      <point x="165" y="291"/>
      <point x="125" y="295" type="curve"/>
      <point x="151" y="381"/>
      <point x="218" y="465"/>
    </contour>
    <contour>
      <point x="256" y="619" type="curve"/>
      <point x="306" y="619" type="line"/>
      <point x="315" y="657"/>
      <point x="335" y="687"/>
      <point x="377" y="687" type="curve" smooth="yes"/>
      <point x="406" y="687"/>
      <point x="418" y="673"/>
      <point x="418" y="644" type="curve" smooth="yes"/>
      <point x="418" y="636"/>
      <point x="417" y="628"/>
      <point x="416" y="619" type="curve"/>
      <point x="465" y="619" type="line"/>
      <point x="467" y="627"/>
      <point x="468" y="635"/>
      <point x="468" y="643" type="curve" smooth="yes"/>
      <point x="468" y="691"/>
      <point x="434" y="730"/>
      <point x="383" y="730" type="curve" smooth="yes"/>
      <point x="325" y="730"/>
      <point x="269" y="682"/>
    </contour>
  </outline>
</glyph>
<glyph name="Iinvertedbreve" format="1">
  <advance width="258"/>
  <unicode hex="020A"/>
  <outline>
    <contour>
      <point x="20" y="0" type="line"/>
      <point x="110" y="0" type="line"/>
      <point x="261" y="709" type="line"/>
      <point x="171" y="709" type="line"/>
    </contour>
    <contour>
      <point x="132" y="805" type="curve"/>
      <point x="182" y="805" type="line"/>
      <point x="191" y="843"/>
      <point x="211" y="873"/>
      <point x="253" y="873" type="curve" smooth="yes"/>
      <point x="282" y="873"/>
      <point x="294" y="859"/>
      <point x="294" y="830" type="curve" smooth="yes"/>
      <point x="294" y="822"/>
      <point x="293" y="814"/>
      <point x="292" y="805" type="curve"/>
      <point x="341" y="805" type="line"/>
      <point x="343" y="813"/>
      <point x="344" y="821"/>
      <point x="344" y="829" type="curve" smooth="yes"/>
      <point x="344" y="877"/>
      <point x="310" y="916"/>
      <point x="259" y="916" type="curve" smooth="yes"/>
      <point x="201" y="916"/>
      <point x="145" y="868"/>
    </contour>
  </outline>
</glyph>
<glyph name="iinvertedbreve" format="1">
  <advance width="226"/>
  <unicode hex="020B"/>
  <outline>
    <contour>
      <point x="5" y="0" type="line"/>
      <point x="93" y="0" type="line"/>
      <point x="204" y="522" type="line"/>
      <point x="116" y="522" type="line"/>
    </contour>
    <contour>
      <point x="75" y="619" type="curve"/>
      <point x="125" y="619" type="line"/>
      <point x="134" y="657"/>
      <point x="154" y="687"/>
      <point x="196" y="687" type="curve" smooth="yes"/>
      <point x="225" y="687"/>
      <point x="237" y="673"/>
      <point x="237" y="644" type="curve" smooth="yes"/>
      <point x="237" y="636"/>
      <point x="236" y="628"/>
      <point x="235" y="619" type="curve"/>
      <point x="284" y="619" type="line"/>
      <point x="286" y="627"/>
      <point x="287" y="635"/>
      <point x="287" y="643" type="curve" smooth="yes"/>
      <point x="287" y="691"/>
      <point x="253" y="730"/>
      <point x="202" y="730" type="curve" smooth="yes"/>
      <point x="144" y="730"/>
      <point x="88" y="682"/>
    </contour>
  </outline>
</glyph>
<glyph name="oinvertedbreve" format="1">
  <advance width="578"/>
  <unicode hex="020F"/>
  <outline>
    <contour>
      <point x="222" y="-10" type="curve" smooth="yes"/>
      <point x="395" y="-10"/>
      <point x="539" y="146"/>
      <point x="539" y="312" type="curve" smooth="yes"/>
      <point x="539" y="432"/>
      <point x="465" y="531"/>
      <point x="337" y="531" type="curve" smooth="yes"/>
      <point x="166" y="531"/>
      <point x="22" y="375"/>
      <point x="22" y="208" type="curve" smooth="yes"/>
      <point x="22" y="89"/>
      <point x="94" y="-10"/>
    </contour>
    <contour>
      <point x="239" y="66" type="curve" smooth="yes"/>
      <point x="163" y="66"/>
      <point x="113" y="131"/>
      <point x="113" y="219" type="curve" smooth="yes"/>
      <point x="113" y="345"/>
      <point x="219" y="455"/>
      <point x="321" y="455" type="curve" smooth="yes"/>
      <point x="397" y="455"/>
      <point x="447" y="388"/>
      <point x="447" y="301" type="curve" smooth="yes"/>
      <point x="447" y="174"/>
      <point x="342" y="66"/>
    </contour>
    <contour>
      <point x="256" y="619" type="curve"/>
      <point x="306" y="619" type="line"/>
      <point x="315" y="657"/>
      <point x="335" y="687"/>
      <point x="377" y="687" type="curve" smooth="yes"/>
      <point x="406" y="687"/>
      <point x="418" y="673"/>
      <point x="418" y="644" type="curve" smooth="yes"/>
      <point x="418" y="636"/>
      <point x="417" y="628"/>
      <point x="416" y="619" type="curve"/>
      <point x="465" y="619" type="line"/>
      <point x="467" y="627"/>
      <point x="468" y="635"/>
      <point x="468" y="643" type="curve" smooth="yes"/>
      <point x="468" y="691"/>
      <point x="434" y="730"/>
      <point x="383" y="730" type="curve" smooth="yes"/>
      <point x="325" y="730"/>
      <point x="269" y="682"/>
    </contour>
  </outline>
</glyph>
<glyph name="rinvertedbreve" format="1">
  <advance width="354"/>
  <unicode hex="0213"/>
  <outline>
    <contour>
      <point x="5" y="0" type="line"/>
      <point x="93" y="0" type="line"/>
      <point x="161" y="322" type="line"/>
      <point x="204" y="398"/>
      <point x="282" y="443"/>
      <point x="365" y="445" type="curve"/>
      <point x="381" y="521" type="line"/>
      <point x="375" y="522"/>
      <point x="367" y="523"/>
      <point x="355" y="523" type="curve" smooth="yes"/>
      <point x="291" y="523"/>
      <point x="222" y="473"/>
      <point x="172" y="401" type="curve"/>
      <point x="198" y="522" type="line"/>
      <point x="116" y="522" type="line"/>
    </contour>
    <contour>
      <point x="154" y="619" type="curve"/>
      <point x="204" y="619" type="line"/>
      <point x="213" y="657"/>
      <point x="233" y="687"/>
      <point x="275" y="687" type="curve" smooth="yes"/>
      <point x="304" y="687"/>
      <point x="316" y="673"/>
      <point x="316" y="644" type="curve" smooth="yes"/>
      <point x="316" y="636"/>
      <point x="315" y="628"/>
      <point x="314" y="619" type="curve"/>
      <point x="363" y="619" type="line"/>
      <point x="365" y="627"/>
      <point x="366" y="635"/>
      <point x="366" y="643" type="curve" smooth="yes"/>
      <point x="366" y="691"/>
      <point x="332" y="730"/>
      <point x="281" y="730" type="curve" smooth="yes"/>
      <point x="223" y="730"/>
      <point x="167" y="682"/>
    </contour>
  </outline>
</glyph>
<glyph name="hungarumlaut" format="1">
  <advance width="324"/>
  <unicode hex="02DD"/>
  <outline>
    <contour>
      <point x="149" y="521" type="move" name="_top"/>
    </contour>
    <contour>
      <point x="190" y="730" type="line"/>
      <point x="115" y="730" type="line"/>
      <point x="43" y="629" type="line"/>
      <point x="84" y="609" type="line"/>
    </contour>
    <contour>
      <point x="322" y="730" type="line"/>
      <point x="247" y="730" type="line"/>
      <point x="175" y="629" type="line"/>
      <point x="216" y="609" type="line"/>
    </contour>
  </outline>
</glyph>
<glyph name="Ndotaccent" format="1">
  <advance width="739"/>
  <unicode hex="1E44"/>
  <outline>
    <contour>
      <point x="514" y="810" type="line"/>
      <point x="536" y="916" type="line"/>
      <point x="457" y="916" type="line"/>
      <point x="434" y="810" type="line"/>
    </contour>
    <contour>
      <point x="20" y="0" type="line"/>
      <point x="110" y="0" type="line"/>
      <point x="225" y="542" type="line"/>
      <point x="516" y="0" type="line"/>
      <point x="591" y="0" type="line"/>
      <point x="742" y="709" type="line"/>
      <point x="652" y="709" type="line"/>
      <point x="535" y="157" type="line"/>
      <point x="241" y="710" type="line"/>
      <point x="171" y="710" type="line"/>
    </contour>
  </outline>
</glyph>
<glyph name="Rdotbelow" format="1">
  <advance width="633"/>
  <unicode hex="1E5A"/>
  <outline>
    <contour>
      <point x="110" y="0" type="line"/>
      <point x="164" y="255" type="line"/>
      <point x="338" y="255" type="line"/>
      <point x="436" y="0" type="line"/>
      <point x="538" y="0" type="line"/>
      <point x="433" y="272" type="line"/>
      <point x="539" y="299"/>
      <point x="623" y="411"/>
      <point x="623" y="522" type="curve" smooth="yes"/>
      <point x="623" y="618"/>
      <point x="563" y="710"/>
      <point x="461" y="710" type="curve" smooth="yes"/>
      <point x="171" y="710" type="line"/>
      <point x="20" y="0" type="line"/>
    </contour>
    <contour>
      <point x="181" y="335" type="line"/>
      <point x="244" y="630" type="line"/>
      <point x="439" y="630" type="line" smooth="yes"/>
      <point x="492" y="630"/>
      <point x="530" y="577"/>
      <point x="530" y="512" type="curve" smooth="yes"/>
      <point x="530" y="425"/>
      <point x="462" y="335"/>
      <point x="382" y="335" type="curve" smooth="yes"/>
    </contour>
    <contour>
      <point x="255" y="-182" type="line"/>
      <point x="277" y="-76" type="line"/>
      <point x="198" y="-76" type="line"/>
      <point x="175" y="-182" type="line"/>
    </contour>
  </outline>
</glyph>
<glyph name="Tdotbelow" format="1">
  <advance width="586"/>
  <unicode hex="1E6C"/>
  <outline>
    <contour>
      <point x="183" y="0" type="line"/>
      <point x="273" y="0" type="line"/>
      <point x="407" y="630" type="line"/>
      <point x="638" y="630" type="line"/>
      <point x="655" y="710" type="line"/>
      <point x="103" y="710" type="line"/>
      <point x="86" y="630" type="line"/>
      <point x="317" y="630" type="line"/>
    </contour>
    <contour>
      <point x="229" y="-182" type="line"/>
      <point x="251" y="-76" type="line"/>
      <point x="172" y="-76" type="line"/>
      <point x="149" y="-182" type="line"/>
    </contour>
  </outline>
</glyph>
<glyph name="Edotbelow" format="1">
  <advance width="580"/>
  <unicode hex="1EB8"/>
  <outline>
    <contour>
      <point x="20" y="0" type="line"/>
      <point x="479" y="0" type="line"/>
      <point x="496" y="80" type="line"/>
      <point x="127" y="80" type="line"/>
      <point x="179" y="325" type="line"/>
      <point x="492" y="325" type="line"/>
      <point x="508" y="400" type="line"/>
      <point x="195" y="400" type="line"/>
      <point x="244" y="630" type="line"/>
      <point x="604" y="630" type="line"/>
      <point x="621" y="710" type="line"/>
      <point x="171" y="710" type="line"/>
    </contour>
    <contour>
      <point x="248" y="-182" type="line"/>
      <point x="270" y="-76" type="line"/>
      <point x="191" y="-76" type="line"/>
      <point x="168" y="-182" type="line"/>
    </contour>
  </outline>
</glyph>
<glyph name="threeinferior" format="1">
  <advance width="380"/>
  <unicode hex="2083"/>
  <outline>
    <contour>
      <point x="100" y="-85" type="curve" smooth="yes"/>
      <point x="193" y="-85"/>
      <point x="287" y="-39"/>
      <point x="287" y="45" type="curve" smooth="yes"/>
      <point x="287" y="88"/>
      <point x="258" y="123"/>
      <point x="208" y="131" type="curve"/>
      <point x="277" y="145"/>
      <point x="317" y="181"/>
      <point x="317" y="235" type="curve" smooth="yes"/>
      <point x="317" y="290"/>
      <point x="265" y="331"/>
      <point x="186" y="331" type="curve" smooth="yes"/>
      <point x="125" y="331"/>
      <point x="61" y="308"/>
      <point x="28" y="269" type="curve"/>
      <point x="55" y="226" type="line"/>
      <point x="82" y="258"/>
      <point x="124" y="280"/>
      <point x="176" y="280" type="curve" smooth="yes"/>
      <point x="219" y="280"/>
      <point x="257" y="259"/>
      <point x="257" y="225" type="curve" smooth="yes"/>
      <point x="257" y="177"/>
      <point x="200" y="154"/>
      <point x="114" y="154" type="curve" smooth="yes"/>
      <point x="92" y="154" type="line"/>
      <point x="82" y="104" type="line"/>
      <point x="104" y="104" type="line" smooth="yes"/>
      <point x="183" y="104"/>
      <point x="231" y="82"/>
      <point x="231" y="43" type="curve" smooth="yes"/>
      <point x="231" y="-1"/>
      <point x="175" y="-30"/>
      <point x="111" y="-30" type="curve" smooth="yes"/>
      <point x="42" y="-30"/>
      <point x="7" y="10"/>
      <point x="7" y="38" type="curve"/>
      <point x="-32" y="1" type="line"/>
      <point x="-31" y="-53"/>
      <point x="22" y="-85"/>
    </contour>
  </outline>
</glyph>
<glyph name="colonmonetary" format="1">
  <advance width="536"/>
  <unicode hex="20A1"/>
  <outline>
    <contour>
      <point x="129" y="-120" type="line"/>
      <point x="172" y="-120" type="line"/>
      <point x="196" y="-8" type="line"/>
      <point x="206" y="-9"/>
      <point x="216" y="-10"/>
      <point x="227" y="-10" type="curve" smooth="yes"/>
      <point x="235" y="-10"/>
      <point x="244" y="-10"/>
      <point x="253" y="-9" type="curve"/>
      <point x="229" y="-120" type="line"/>
      <point x="273" y="-120" type="line"/>
      <point x="298" y="-1" type="line"/>
      <point x="370" y="17"/>
      <point x="433" y="63"/>
      <point x="468" y="121" type="curve"/>
      <point x="387" y="147" type="line"/>
      <point x="363" y="103"/>
      <point x="298" y="66"/>
      <point x="241" y="66" type="curve" smooth="yes"/>
      <point x="166" y="66"/>
      <point x="115" y="133"/>
      <point x="115" y="221" type="curve" smooth="yes"/>
      <point x="115" y="350"/>
      <point x="217" y="455"/>
      <point x="323" y="455" type="curve" smooth="yes"/>
      <point x="377" y="455"/>
      <point x="418" y="426"/>
      <point x="433" y="377" type="curve"/>
      <point x="524" y="404" type="line"/>
      <point x="509" y="461"/>
      <point x="469" y="503"/>
      <point x="409" y="521" type="curve"/>
      <point x="436" y="645" type="line"/>
      <point x="392" y="645" type="line"/>
      <point x="367" y="529" type="line"/>
      <point x="361" y="530"/>
      <point x="350" y="531"/>
      <point x="341" y="531" type="curve" smooth="yes"/>
      <point x="330" y="531"/>
      <point x="320" y="530"/>
      <point x="310" y="529" type="curve"/>
      <point x="335" y="645" type="line"/>
      <point x="291" y="645" type="line"/>
      <point x="265" y="521" type="line"/>
      <point x="126" y="485"/>
      <point x="24" y="353"/>
      <point x="24" y="210" type="curve" smooth="yes"/>
      <point x="24" y="114"/>
      <point x="71" y="32"/>
      <point x="154" y="2" type="curve"/>
    </contour>
  </outline>
</glyph>
<glyph name="lira" format="1">
  <advance width="481"/>
  <unicode hex="20A4"/>
  <outline>
    <contour>
      <point x="62" y="352" type="line"/>
      <point x="154" y="352" type="line"/>
      <point x="158" y="334"/>
      <point x="160" y="316"/>
      <point x="160" y="293" type="curve"/>
      <point x="49" y="293" type="line"/>
      <point x="38" y="241" type="line"/>
      <point x="152" y="241" type="line"/>
      <point x="136" y="185"/>
      <point x="92" y="133"/>
      <point x="0" y="56" type="curve"/>
      <point x="8" y="-8" type="line"/>
      <point x="45" y="3"/>
      <point x="90" y="10"/>
      <point x="121" y="10" type="curve" smooth="yes"/>
      <point x="181" y="10"/>
      <point x="224" y="-15"/>
      <point x="281" y="-15" type="curve" smooth="yes"/>
      <point x="316" y="-15"/>
      <point x="357" y="-5"/>
      <point x="392" y="12" type="curve"/>
      <point x="385" y="79" type="line"/>
      <point x="350" y="67"/>
      <point x="325" y="61"/>
      <point x="301" y="61" type="curve" smooth="yes"/>
      <point x="256" y="61"/>
      <point x="223" y="79"/>
      <point x="172" y="79" type="curve" smooth="yes"/>
      <point x="150" y="79"/>
      <point x="126" y="76"/>
      <point x="100" y="69" type="curve"/>
      <point x="182" y="144"/>
      <point x="217" y="193"/>
      <point x="231" y="241" type="curve"/>
      <point x="371" y="241" type="line"/>
      <point x="382" y="293" type="line"/>
      <point x="239" y="293" type="line"/>
      <point x="239" y="322"/>
      <point x="237" y="337"/>
      <point x="235" y="352" type="curve"/>
      <point x="395" y="352" type="line"/>
      <point x="406" y="404" type="line"/>
      <point x="224" y="404" type="line"/>
      <point x="214" y="442"/>
      <point x="202" y="477"/>
      <point x="202" y="512" type="curve" smooth="yes"/>
      <point x="202" y="584"/>
      <point x="262" y="642"/>
      <point x="327" y="642" type="curve" smooth="yes"/>
      <point x="377" y="642"/>
      <point x="424" y="608"/>
      <point x="443" y="556" type="curve"/>
      <point x="503" y="610" type="line"/>
      <point x="475" y="675"/>
      <point x="416" y="715"/>
      <point x="344" y="715" type="curve" smooth="yes"/>
      <point x="232" y="715"/>
      <point x="122" y="623"/>
      <point x="122" y="512" type="curve" smooth="yes"/>
      <point x="122" y="475"/>
      <point x="132" y="440"/>
      <point x="142" y="404" type="curve"/>
      <point x="73" y="404" type="line"/>
    </contour>
  </outline>
</glyph>
<glyph name="uni20A6" format="1">
  <advance width="817"/>
  <unicode hex="20A6"/>
  <outline>
    <contour>
      <point x="805" y="428" type="line"/>
      <point x="722" y="428" type="line"/>
      <point x="782" y="709" type="line"/>
      <point x="692" y="709" type="line"/>
      <point x="631" y="428" type="line"/>
      <point x="430" y="428" type="line"/>
      <point x="281" y="710" type="line"/>
      <point x="211" y="710" type="line"/>
      <point x="151" y="428" type="line"/>
      <point x="65" y="428" type="line"/>
      <point x="54" y="376" type="line"/>
      <point x="140" y="376" type="line"/>
      <point x="127" y="317" type="line"/>
      <point x="41" y="317" type="line"/>
      <point x="30" y="265" type="line"/>
      <point x="116" y="265" type="line"/>
      <point x="60" y="0" type="line"/>
      <point x="150" y="0" type="line"/>
      <point x="206" y="265" type="line"/>
      <point x="413" y="265" type="line"/>
      <point x="555" y="0" type="line"/>
      <point x="631" y="0" type="line"/>
      <point x="687" y="265" type="line"/>
      <point x="771" y="265" type="line"/>
      <point x="782" y="317" type="line"/>
      <point x="698" y="317" type="line"/>
      <point x="711" y="376" type="line"/>
      <point x="794" y="376" type="line"/>
    </contour>
    <contour>
      <point x="229" y="376" type="line"/>
      <point x="354" y="376" type="line"/>
      <point x="385" y="317" type="line"/>
      <point x="217" y="317" type="line"/>
    </contour>
    <contour>
      <point x="458" y="376" type="line"/>
      <point x="620" y="376" type="line"/>
      <point x="608" y="317" type="line"/>
      <point x="489" y="317" type="line"/>
    </contour>
    <contour>
      <point x="265" y="542" type="line"/>
      <point x="326" y="428" type="line"/>
      <point x="240" y="428" type="line"/>
    </contour>
    <contour>
      <point x="517" y="265" type="line"/>
      <point x="597" y="265" type="line"/>
      <point x="574" y="157" type="line"/>
    </contour>
  </outline>
</glyph>
<glyph name="afii61352" format="1">
  <advance width="1105"/>
  <unicode hex="2116"/>
  <outline>
    <contour>
      <point x="515" y="0" type="line"/>
      <point x="590" y="0" type="line"/>
      <point x="741" y="709" type="line"/>
      <point x="651" y="709" type="line"/>
      <point x="534" y="157" type="line"/>
      <point x="240" y="710" type="line"/>
      <point x="170" y="710" type="line"/>
      <point x="19" y="0" type="line"/>
      <point x="109" y="0" type="line"/>
      <point x="224" y="542" type="line"/>
    </contour>
    <contour>
      <point x="921" y="344" type="curve" smooth="yes"/>
      <point x="1042" y="344"/>
      <point x="1138" y="451"/>
      <point x="1138" y="563" type="curve" smooth="yes"/>
      <point x="1138" y="645"/>
      <point x="1087" y="711"/>
      <point x="999" y="711" type="curve" smooth="yes"/>
      <point x="878" y="711"/>
      <point x="782" y="606"/>
      <point x="782" y="492" type="curve" smooth="yes"/>
      <point x="782" y="412"/>
      <point x="831" y="344"/>
    </contour>
    <contour>
      <point x="854" y="501" type="curve" smooth="yes"/>
      <point x="854" y="582"/>
      <point x="919" y="649"/>
      <point x="986" y="649" type="curve" smooth="yes"/>
      <point x="1033" y="649"/>
      <point x="1065" y="608"/>
      <point x="1065" y="553" type="curve" smooth="yes"/>
      <point x="1065" y="473"/>
      <point x="1000" y="405"/>
      <point x="934" y="405" type="curve" smooth="yes"/>
      <point x="886" y="405"/>
      <point x="854" y="446"/>
    </contour>
  </outline>
</glyph>
<glyph name="Omega" format="1">
  <advance width="802"/>
  <unicode hex="2126"/>
  <outline>
    <contour>
      <point x="51" y="0" type="line"/>
      <point x="340" y="0" type="line"/>
      <point x="340" y="79" type="line"/>
      <point x="225" y="117"/>
      <point x="152" y="245"/>
      <point x="152" y="365" type="curve" smooth="yes"/>
      <point x="152" y="498"/>
      <point x="242" y="633"/>
      <point x="387" y="633" type="curve" smooth="yes"/>
      <point x="532" y="633"/>
      <point x="622" y="498"/>
      <point x="622" y="365" type="curve" smooth="yes"/>
      <point x="622" y="245"/>
      <point x="549" y="117"/>
      <point x="434" y="79" type="curve"/>
      <point x="434" y="0" type="line"/>
      <point x="723" y="0" type="line"/>
      <point x="723" y="79" type="line"/>
      <point x="544" y="79" type="line"/>
      <point x="648" y="137"/>
      <point x="713" y="242"/>
      <point x="713" y="365" type="curve" smooth="yes"/>
      <point x="713" y="549"/>
      <point x="573" y="715"/>
      <point x="387" y="715" type="curve" smooth="yes"/>
      <point x="201" y="715"/>
      <point x="61" y="549"/>
      <point x="61" y="365" type="curve" smooth="yes"/>
      <point x="61" y="242"/>
      <point x="126" y="137"/>
      <point x="230" y="79" type="curve"/>
      <point x="51" y="79" type="line"/>
    </contour>
  </outline>
</glyph>
<glyph name="oneeighth" format="1">
  <advance width="848"/>
  <unicode hex="215B"/>
  <outline>
    <contour>
      <point x="586" y="-5" type="curve" smooth="yes"/>
      <point x="681" y="-5"/>
      <point x="774" y="52"/>
      <point x="774" y="131" type="curve" smooth="yes"/>
      <point x="774" y="172"/>
      <point x="746" y="202"/>
      <point x="707" y="218" type="curve"/>
      <point x="756" y="234"/>
      <point x="798" y="267"/>
      <point x="798" y="315" type="curve" smooth="yes"/>
      <point x="798" y="371"/>
      <point x="737" y="406"/>
      <point x="674" y="406" type="curve" smooth="yes"/>
      <point x="599" y="406"/>
      <point x="507" y="359"/>
      <point x="507" y="288" type="curve" smooth="yes"/>
      <point x="507" y="254"/>
      <point x="531" y="230"/>
      <point x="561" y="218" type="curve"/>
      <point x="507" y="199"/>
      <point x="452" y="162"/>
      <point x="452" y="100" type="curve" smooth="yes"/>
      <point x="452" y="42"/>
      <point x="505" y="-5"/>
    </contour>
    <contour>
      <point x="600" y="50" type="curve" smooth="yes"/>
      <point x="555" y="50"/>
      <point x="509" y="73"/>
      <point x="509" y="111" type="curve" smooth="yes"/>
      <point x="509" y="160"/>
      <point x="572" y="193"/>
      <point x="629" y="193" type="curve" smooth="yes"/>
      <point x="674" y="193"/>
      <point x="718" y="169"/>
      <point x="718" y="130" type="curve" smooth="yes"/>
      <point x="718" y="82"/>
      <point x="655" y="50"/>
    </contour>
    <contour>
      <point x="639" y="238" type="curve" smooth="yes"/>
      <point x="601" y="238"/>
      <point x="562" y="257"/>
      <point x="562" y="288" type="curve" smooth="yes"/>
      <point x="562" y="328"/>
      <point x="612" y="353"/>
      <point x="663" y="353" type="curve" smooth="yes"/>
      <point x="704" y="353"/>
      <point x="741" y="334"/>
      <point x="741" y="303" type="curve" smooth="yes"/>
      <point x="741" y="263"/>
      <point x="684" y="238"/>
    </contour>
    <contour>
      <point x="204" y="375" type="line"/>
      <point x="280" y="731" type="line"/>
      <point x="224" y="731" type="line"/>
      <point x="223" y="728"/>
      <point x="162" y="675"/>
      <point x="122" y="675" type="curve"/>
      <point x="110" y="620" type="line"/>
      <point x="141" y="620"/>
      <point x="194" y="652"/>
      <point x="211" y="669" type="curve"/>
      <point x="149" y="375" type="line"/>
      <point x="73" y="375" type="line"/>
      <point x="61" y="320" type="line"/>
      <point x="262" y="320" type="line"/>
      <point x="274" y="375" type="line"/>
    </contour>
    <contour>
      <point x="95" y="-5" type="line"/>
      <point x="427" y="343" type="line"/>
      <point x="761" y="678" type="line"/>
      <point x="726" y="715" type="line"/>
      <point x="399" y="370" type="line"/>
      <point x="61" y="33" type="line"/>
    </contour>
  </outline>
</glyph>
<glyph name="uni2219" format="1">
  <advance width="199"/>
  <unicode hex="2219"/>
  <outline>
    <contour>
      <point x="124" y="245" type="line"/>
      <point x="150" y="369" type="line"/>
      <point x="76" y="369" type="line"/>
      <point x="50" y="245" type="line"/>
    </contour>
  </outline>
</glyph>
<glyph name="Z.sc" format="1">
  <advance width="531"/>
  <outline>
    <contour>
      <point x="274" y="707" type="move" name="top"/>
    </contour>
    <contour>
      <point x="-28" y="0" type="line"/>
      <point x="429" y="0" type="line"/>
      <point x="444" y="71" type="line"/>
      <point x="88" y="71" type="line"/>
      <point x="533" y="489" type="line"/>
      <point x="546" y="551" type="line"/>
      <point x="97" y="551" type="line"/>
      <point x="82" y="480" type="line"/>
      <point x="437" y="480" type="line"/>
      <point x="-15" y="62" type="line"/>
    </contour>
  </outline>
</glyph>
<glyph name="nine.lnum" format="1">
  <advance width="592"/>
  <outline>
    <contour>
      <point x="76" y="427" type="curve" smooth="yes"/>
      <point x="76" y="317"/>
      <point x="151" y="231"/>
      <point x="264" y="231" type="curve" smooth="yes"/>
      <point x="341" y="231"/>
      <point x="417" y="276"/>
      <point x="459" y="345" type="curve"/>
      <point x="420" y="169"/>
      <point x="332" y="68"/>
      <point x="230" y="68" type="curve" smooth="yes"/>
      <point x="165" y="68"/>
      <point x="115" y="108"/>
      <point x="101" y="170" type="curve"/>
      <point x="36" y="117" type="line"/>
      <point x="61" y="37"/>
      <point x="126" y="-10"/>
      <point x="213" y="-10" type="curve" smooth="yes"/>
      <point x="422" y="-10"/>
      <point x="567" y="224"/>
      <point x="567" y="489" type="curve" smooth="yes"/>
      <point x="567" y="630"/>
      <point x="495" y="715"/>
      <point x="376" y="715" type="curve" smooth="yes"/>
      <point x="221" y="715"/>
      <point x="76" y="583"/>
    </contour>
    <contour>
      <point x="359" y="640" type="curve" smooth="yes"/>
      <point x="433" y="640"/>
      <point x="485" y="577"/>
      <point x="485" y="500" type="curve" smooth="yes"/>
      <point x="485" y="395"/>
      <point x="385" y="303"/>
      <point x="288" y="303" type="curve" smooth="yes"/>
      <point x="214" y="303"/>
      <point x="163" y="364"/>
      <point x="163" y="441" type="curve" smooth="yes"/>
      <point x="163" y="546"/>
      <point x="262" y="640"/>
    </contour>
  </outline>
</glyph>
<glyph name="six.lnum" format="1">
  <advance width="591"/>
  <outline>
    <contour>
      <point x="238" y="-10" type="curve" smooth="yes"/>
      <point x="392" y="-10"/>
      <point x="537" y="123"/>
      <point x="537" y="278" type="curve" smooth="yes"/>
      <point x="537" y="389"/>
      <point x="462" y="474"/>
      <point x="349" y="474" type="curve" smooth="yes"/>
      <point x="272" y="474"/>
      <point x="197" y="429"/>
      <point x="154" y="360" type="curve"/>
      <point x="194" y="536"/>
      <point x="282" y="638"/>
      <point x="383" y="638" type="curve" smooth="yes"/>
      <point x="449" y="638"/>
      <point x="498" y="598"/>
      <point x="513" y="536" type="curve"/>
      <point x="578" y="589" type="line"/>
      <point x="553" y="668"/>
      <point x="488" y="715"/>
      <point x="401" y="715" type="curve" smooth="yes"/>
      <point x="191" y="715"/>
      <point x="47" y="483"/>
      <point x="47" y="216" type="curve" smooth="yes"/>
      <point x="47" y="76"/>
      <point x="118" y="-10"/>
    </contour>
    <contour>
      <point x="255" y="66" type="curve" smooth="yes"/>
      <point x="181" y="66"/>
      <point x="130" y="128"/>
      <point x="130" y="205" type="curve" smooth="yes"/>
      <point x="130" y="310"/>
      <point x="228" y="403"/>
      <point x="326" y="403" type="curve" smooth="yes"/>
      <point x="400" y="403"/>
      <point x="451" y="342"/>
      <point x="451" y="265" type="curve" smooth="yes"/>
      <point x="451" y="159"/>
      <point x="352" y="66"/>
    </contour>
  </outline>
</glyph>
